<mxfile host="Electron" modified="2023-11-12T13:50:21.444Z" agent="Mozilla/5.0 (Windows NT 10.0; Win64; x64) AppleWebKit/537.36 (KHTML, like Gecko) draw.io/21.7.5 Chrome/114.0.5735.289 Electron/25.8.1 Safari/537.36" etag="az7v5ZoTuuZHjaYcC3OC" version="21.7.5" type="device">
  <diagram name="第 1 页" id="JE1F4zdD33i39hbjEKM-">
    <mxGraphModel dx="1091" dy="646" grid="1" gridSize="10" guides="1" tooltips="1" connect="1" arrows="1" fold="1" page="1" pageScale="1" pageWidth="827" pageHeight="1169" backgroundImage="{&quot;src&quot;:&quot;data:image/png;base64,iVBORw0KGgoAAAANSUhEUgAAAvEAAAFFCAIAAADq6SVIAAAAAXNSR0IArs4c6QAAAARnQU1BAACxjwv8YQUAAAAJcEhZcwAAEnQAABJ0Ad5mH3gAAMThSURBVHhe7P13XFVX3vcPP1dmJpMyySSZ9DbJJJNJjyV2EQFFpXcQbIgFe0HFil0UC/beQFQUEcUuiFgABUHpRUGq9G6dua/797xl7ZybydHECufAev/B67D3Wnuvvdb6ftbnu88+5/z//j+JRCKRSCQS7Ud6GolEIpFIJE0B6WkkEolEIpE0BaSnkUgkEolE0hSQnkYikUgkEklTQHoaiUQikUgkTQHpaSQSiUQikTQFpKeRSCQSiUTSFJCeRiKRSCQSSVNAehqJRCKRSCRNAelpJBKJRCKRNAWkp5FIJBKJRNIUkJ5GIpFIJBJJU0B6GolEIpFIJE0B6WkkEolEIpE0BaSnkUgkEolE0hSQnkYikUgkEklTQHoaiUQikUgkTQHpaSQSiUQikTQFpKeRSCQSiUTSFJCeRiKRSCQSSVNAehqJRCKRSCRNAelpJBKJRCKRNAWkp5FoCv/3F5T/JRKJdqJE8oNQSkgkz4dH9TTKfJQ0Uf73f//3/zwyFFaqPQs42r///e/a2tr8/PzMzMyysjL+VfZJJBKt4j//+U9NTU1RURGxnJSUdOUXEhMTr169WlBQUFFRcffu3WerIZJmiGJN1JCeprmDR7l3715VVRVyk5GRkZCQEFtHXFwcSsS/iBHwAhApylCS8ggTdZWjPBHo2p07d0pKSjj+/v37J0+ePHjw4ICAALagjEohiUSiJRDRJCfx8fH79u3z8PCwsLD4+eeff/jhh9atW5ubm0+ZMmX79u3nzp1DQGTeInlKFGuihvQ0zR3cA5nT5cuXfX19J06caGZm1rZt25YtW/JXX1/f2NgYMTI1NTUyMuK1nZ3dyJEjN27ceOHChcLCQszQE+dbVOTUHOTIkSOjR49u3779xx9/3KpVq3Xr1t24cUN6GolE6yCoMSvoSV5e3vHjx11dXT/77LM//elPhLa7u/uZM2eysrLIWG7evCkDXPKUKNZEDelpmjviZklpaWlycnJgYOCgQYM+/PDDl1566auvvpo0aVJAQMDRo0cPHTrk5+fn6enJXoxOx44dsT5z5syJjo6uqalBnp7A2QhPU11dnZGRsWvXLl1d3VdeeeXbb79du3at9DQSiZZCXMP/+T//Jzs7e+XKleQqr732Wrt27fz9/cvLy4VWCJQKEskToVgTNaSnkSiQYAkZ+u6775AhjEtwcPDt27fZpTIfx44dmzx5cosWLd55553vv/9++vTpOKFbt249gUJRBeHjpHfv3k1NTcUtvfnmm9LTSCRNAKK7sLBw+/btpEDEtYGBAalRbW2ttDKSZ4ViTdSQnkaigI0oLi728fFp1arVX//6V11d3bCwMPHEjMp/VFZWnj9/vn///h9//PHLL79M+rV58+aioqIne7CGwwLnzcrKmjBhAj5JehqJpAlAXCMLvr6+3bp1e+utt7p37046dPPmTbYrJSSSp0OxJmpITyNRwJeUlpb6+fm1bt0aT9OlS5fTp0/X1yDhP8rLy729vdu0afPKK6+QgTk6OiYkJDzwiT/Kq6j/r9irgvNev3590qRJ7777bn1Po15SIpFoCyRIT+Bp6hTiAfzGLoF6dTTk9u3bt27d4q948u9RUD+OCrFLoiEo1kQN6WkkCniLsrKynTt3/vzzz8LThIeHK/vqcffu3cDAQBMTkzfeeOOFF15o3759aGjonTt3lN31QAU4JmqCpgAVH+hU2JKdne3u7l7f02CSgCocWfobiUTrwNPs2LHjcT0NioFWVFRUFBUVFRYW8pfXbBFigiBUV1eXlJSwCzgF/9bXB1GM8kgZqnLlypWYmJhLly6lp6eLZ5OFqlRWVorjq6B8bW2tOBSgWjU1NaoTyc+fayCKNVFDehqJwiN6GkTh8OHDVlZWSNX//M//UPjo0aOIiLL7F1TKkpWVlVD3+fCkpKS8vLyqqir0gr1KuQd5GlEsJyeHiugRRxCaUr+WRCLRZJ7M0xDmBQUFZ8+e9fX1XVlHcHBwZmYmooHyoCcoCTkVKrFs2bLNmzdHRkaqHtPhLxLBv2lpaQcOHKDu0qVLvby8ZsyYMWvWLA54+fJllKS0tPTcuXPbt29fsWIFB/H29l6/fj3No5Z4NBDQH/zQ3r172bVp0ybaQy22i0ZKNAHFmqghPY1E4VE8DVGN6Ozbt8/Y2PiNN9744x//qKurGxERgeIoJeqgGOqQkpLi5+c3f/58Dw+PCRMmjBkzZsGCBRggzMqdO3dUAsELlaf55ptv1qxZg7icOXMGMRoxYsTAgQOnTp26Z88eoWsUVlWUSCQay5N5GoxLSUlJdHT0kiVLjIyM2rdvP3HiRCwIevKf//wHq4GqYDX69OnTqlUrVGjjxo2olpAFFAyJSE5OXr58ObUQEH9//927dyNBlpaWHG3hwoXkSDQMjzJ9+nTa1rJlyzZt2nC0kJCQ69evC12Cmpqa+Ph4tIhdkydPRo4qKyvZrrRSogEo1kQN6WkkCg/0NKowrov0+7dkyVcWLVrUokWLV1555e9//ztmJSsrS3UHhTK8LioqOnLkCLIybdq0DRs2BAQEoG6kSvb29mZmZp6enhcvXkSeKCyqqDzNV199hQFCp4YOHUozPv/88w8++OAf//iHnp4eGoQeybs1EolW8MTvPRHjCNGBAwc6depEXQcHB1Vd9Ke6upqcB6uB/vzrX/9CTDiRkJ3a2tq4uDgcDDqzbNkycq38/Py8vDwcjKurK2JCAoZ2Xb16Fck6ePAgWvT666+jddgdrFL9r6XAWpF6bdq0SXwLKMehVaKFEg1BsSZqSE8jUUAUVJ7mjTfeIP6FpxEIrblx48bx48eRjPfff//tt9/mxYkTJ1TuRBykvLw8NDR03LhxSMa6desSExOxOIgCyjJjxowffviha9euc+fOvXLliupOr/A077zzzkcffWRrazt69OgRI0aMGjWqf//+HTt25ERvvvkmFb29vcWjNuJcEolEY3kyTyMgxqOiopCgv/zlLwjC0aNHqct2qqMwmA9ynj/96U9ffPHFvHnzhKfBjuBU1q9fb25u7ujoeOrUKdSMjdgg5GXOnDl4ms8++8zZ2Tk2NhaNKigomDlzJlteffVVThQZGclh74vRL2B9MEY4JCzUnTt3OK9om0RDUKyJGtLTNB2UWHw01VCnvqd57bXXvv/+e3IgHExIHbwgX1m6dCkZEru++uorS0tLf39/IRzKIf7v/0VBLl++jHcxMDAYO3bsxYsXxZN34r1wvI6dnd2XX35JBrZlyxaMDielwSpP87e//a1Hjx7oFKdLTU2l+saNGxHE9957D3XjjGwX6iaRSJ43T6MnT+NpUIzo6Gg9Pb1feRoBDmP48OG/8jRsDAsLGzRoEFnQtGnT0tPTxT1dlKe0tBRZMzY2bt++/fjx48myECW20yQ2coqvv/4aZUOF2Fh3xfffYcdUTZkyZe/evVSXhkYDUayJGtLTaD3EG07i1q1blZWVhDcRSMQSk+iCiE+l3O9R39O89NJLKBHpy4ABA1xdXcmK+vXrhzD961//evvtt99//319ff3FixcnJSXVv2ELJEBCyDjIrl27CgsLVc1AL/Ly8lauXPnjjz/+9a9/HTx4MKpx+/ZtzqvyNB9//DFO6MKFC0gY5bkKmrRp06bOnTtjs/7+97+jViRYUmIkkudEfT0pKSlBT4hxHAOBzC5VpP8uT+lpYmJiHuZpkIVfeRoaRmvJf0iW2rVrh2Kovg+CXTT+6tWrfn5+GBeSIkoK74KSzJ0799NPP6WFFhYW4eHhnIXywIUHBgbiaeLi4jjdo1+1pMFQrIka0tNoMUQacVtVVZWRkXH27NmAgID169dv3rz50KFDsbGxRDWOgehVSv8eRLLK0yAl33zzjZeXV2ho6OnTp/l74MCB1atXYzh69Ojxz3/+E3vRpUsXFIHzEv80gyPQnrS0tMmTJ1OXbCkkJKT+g3W8oKlHjhwxMzMT722hMugRdYWneffdd0mYli9fnpubK/QIeJGamjpq1Cjszuuvv+7o6CieqhHHlEgkzwoRbjiYa9euEdf79u3DJWzZsuXgwYMXL14kIREP6iqlf4+n9DSEOYnTI3oaVI42z5gxg6SL/IeWI2UImijPSamC+LBR3DYWzUAeT5w4YWNj8+abb5JorVixgmtkL5YOK0P2tWHDhqysrEeXUElDolgTNaSn0VYIS2IP0xAVFeXp6Ume0apVK9zGV1991bJlS2dnZxxDeno6MfyIOlLf0/z1r3/FlBw+fBghqK6u5i/pWn5+fnJyMubG1dX1hx9+EB9TGjJkCKZHqBVyEBERYW9v/8EHH6BlvEYflaPXgSZitqj+zjvv0NRFixZdv34dyVB5GvXvEeaweCbEpU2bNq+99pqRkRGZlvpHxyUSydMg4pdIx0wsWbKElR4dwCIAwtK3b18fHx+yi0fXk4b0NOIt75EjR5JrderUKTAwsL6neRicBU3z9vYWn0UYNGhQdHQ02oLicUZElVxOvvGksSjWRA3pabQVApJ4I52aMGFCixYtcCF//OMf/6eOF1544b333kNNvLy8EhMTCXik5HfV5Feepku97xEW1SmA/ygvLye5wcogBC+//DLWxM3NjWwGocGyHDp0yMDAgLynR48emC0UUBxcQEtIp6ZMmYKCvPHGGxMnTkxLS2Pjb3sajBES07NnTzyNnp5eQEAAJxJ7JRLJM4HoxtBcvHhx6tSprVu3JoQxDUJP/vCHP5CEIAgLFizAOgg9Uao9nMfyNPf1pR5P4GliYmIQpY8++ojkx9fXl40qDVGhHL0O/uWSORQqJ75tS0dHRzzkh0bRcoSInPDRfZikgVGsiRrS02glhNmdO3cIYwTo+++///Of/yzUpz6vv/46UUpkFhUVPYoMqXuaB37nHsXQCz8/P0zGSy+99Morr3Ts2BHBwutUVlb6+/vzL6dGj9Tv01AXv0IC9Mknn1Bx9OjRKSkpv+tpcDAcCt3B0+jq6nKK+gInkUieEqKM1Z1gxCL89NNPD9QTArZt27be3t6FhYWP8nbMI3oatgDKIL4gmDLEPjyup4mNjWUjwvKvf/1r4cKF4gZw/dPxmopoFKKk2sXf3NzcFStWfPbZZ//4xz9cXFzCwsI43cqVK4OCgtC0R7lSSaOgWBM1pKfRSoj5ioqKPXv2IBms9Irq/DdkV++///7AgQOxPo9yx/gRPQ3HwU5duHBh6NChnBpl+ec//7l+/fq8vDyatHv37g4dOrz88sv8JQEi8/vVeTnF0qVL//73v7/xxhtubm6pqam/62lu377NJSBtWCVDQ8MDBw7I5EkieYYQ+4Tq4cOHjY2NiTJFQf6bF154AXfi6OgoHu1Xaj6cR/c0nB3rgBSgKhgmnMcTeJrk5OQJEyawBdEbMmRIXFwcuZDqdLzgmKWlpfHx8deuXauvh7zGx/To0eOjjz5q166dl5cXFgfrRh6F0NE2UUyiaSjWRA3pabQSJAAPQfiRlOBdFNVRg9RKT09v7969uA11NfkVj+hpAAVBgCZNmkQxlIX8BgnIyckhATp48CBK9NJLL33//fe85oD1z8trZGXJkiV4GhIj9CgzM5NreZT7NJaWlm+++SYCd+7cOST1dy9HIpE8IoQbZmLVqlUE4G/oyZ///Of27dv7+fn96v7rA3l0T4MCIFBHjhwhI0JGhKchjRGexsbGhl0qTyMEwdXVtb6noXxubu78+fORHXE3l0OJ7eKMiBtHSExM3LdvH86pvh6iZricmTNncu0ff/yxqanpuHHjtmzZkpGRoaou0UAUa6KG9DRaCQlESkrK2LFjP/jgA0VvHgSpFYG6fPlywvt3g/PRPQ2iQ7rD2UnpXnzxxe+++87X11e8w3X+/Hl7e3uqY1lId65fv44uKNXqpBO/smDBgk8//bRz584+Pj5Cd37b01RXVx84cABx/OSTT9zc3H51TIlE8pQQUKzrZCkfffSRoh0PAj35/PPPid/Kykql5sN5dE/D9kuXLiEXOAliH4tDe/A01MLTYDICAwOrqqoQKEB88D19+vT54x//SDY1d+5cTsR2CqAnBgYGeBpxfxr5Ki8vpzwHrK2tRTD37NmDGEZHR9e/fywU5sSJExYWFn/7299ItwYMGHD48GF8D4cVZSQaiGJN1JCeRivB0yQlJY0YMeK9995T9OYh/Otf/1q6dOkjeprSui+n+t33noj2oKAgc3Pzl19+mZJGRkYXL15EmDhCWlratGnTOOmHH36IrLBddU+Fv+gLBbAvKCOqdPr0aRI+av2Gp2EvjUeJaBV5GypZ//PhEonk6SHcrl69Om7cuN/OkYC8Ahvx256G8ASieOvWrV27dn3jjTf09PRwCQR7/cjlNdGNJqSmpq5cuXLChAkBAQFoC40BsiYnJ6d33nmnffv2hD/Nw3kgUBTGmujq6v7hD38gNZo8eTJJDiJz69YtEqrRo0f/85//RJe+/vrroUOH7tu37/Lly8nJySdPnvTy8uIUq1evRm3Qz/otIRlLT0/nuhCub775Bm+Ho5I3gzUcxZqoIT2NVoIQZGRk4AM+/vhjRWweBKnMTz/9tGbNmpKSkt+NT+EeMA2tW7fGqaAa9T0N1UFo0JUrV6ZOnUrw/+lPf/ryyy/RAvSLXRQgMdq1axcuh1SJU6M+ZXVfNCzqImpnz551cXFp1arVvHnz0BFSKHbV9zSITn5+vqgCFEhMTBw+fPj333+PJKFoNEBpk0QieRYQbsTgjBkzsCyKdjwIbASrvre3d1VVlVJTDWL2viWpM0nYCCL91VdfRVKQBRwJ7oGIFvC6traW85LGmJiYODs7k+RgTRAKUR2RQV5okr29/ZYtW86dOxcYGLhw4UKSNNKbF1544W9/+5uDg0NISEhmZibaUlhY6O/vT6712muvcdK///3vFKMu3ojjGxgYICNHjhyhJMdXmlsHZ8RLHThwwNjYmJJYMSSIFnItSgmJ5qFYEzWkp9FKiDcCmOTmu+++U32EWx08B8aCLCcvL+9hIXrfOPxiVtCRJUuWkOKgCKRHR48eRWLIaQQIUG5uLhnPxIkT27Zt+9ZbbyFwvL5w4YLqmUEOQla0ePFiCpBjYV9QIhQQEeEIZFTol5WV1cCBA48fPy7u7nJ2dG3KlCnvvfce+kWyGBUVhe7QYKoUFRVRxczMbMCAAVRR1yOJRPKUEFOkPfiGH3/88Teep3nppZe6dOkSEBAgnrEFpf4vsAUFQJoQAV9fXwzHp59++sorrxDXvF6wYMGqVatIWgTIF4kNPkNPT69Fixbjx49PSkoSMoUs0J79+/dbWlqS6vzjH/8gxbK1te3Xr9/MmTMPHz7s6Oj44osv4mkMDQ3Xr19/+fJllEEozLZt2zjg22+//fLLL7/++uu8QFhIwPr27bt7926kRl0J+Rehu3Tp0rRp0zB2Z86cEXedld0SjUSxJmpIT6OVEITICmu8jY0NQatIjhp4mg8++MDOzg4ZunHjBonRr4IZCF20AAWJj48nQRFf1SAqWltbz5o1a9myZQjQihUr5s+fP3LkyF69emGkfvjhB3wGGduVK1dQE1X88wI54FCenp7ff//9t99+279/f5IniuFUNm7c2KdPnzFjxpASIXxCXKC8vBy5IalCfVq2bDlq1CgaHBsbi7hgaEjgyNhOnDhBnof4ql+CRCJ5Gogp9IRws7e3J/wV+fhvXnjhBVxCt27dgoODRcirRyJbMAekRuHh4Xia2bNnE8vDhg0bMWKEu7s7mrC0HmQ+c+fOnTRpEmmMh4cHhyXAxWEBUSKDQhbwIiRIrVu3RnDwQGFhYQUFBZTv1KnToEGD8GGRkZGIG16KWugD+duePXtQKh0dna+++goJ6tGjB06FZIyKopjS3F9gC82OiYmhhViijIyMh2WAEs1BsSZqSE+jrWBQiD3yHkL3tddeQ3EU7anjj3/8I14Hf0Be1b59e4wF6oBGoBS/ilVEBIXKzMzENCA0GAgjIyNUAHr27Nm7d28kCReCNg0cOBB7BEOHDkVc0CCk5IHBf/v27cTERPyQhYUFzRsyZMiSJUvwRigR0kaaVVRUpLrdQnWEhgZs2rRpwIABJF40gOwNyfPy8hJSGBERUV1drXJOEonk6SH0iCkiEUNz7do1Pz8/0pj333+flEZdT1599VVSDsSEuL548aJ48OVXsS9iGVlITU1NSkpCBH4FG1Uom+pIT08nrULTlAPVHQptKS4uDg0NXbNmDdJEasRhESuKIVa4GdUN3frN4DVacenSpe3btyMdKA8JEsdH+h4mIGzncjA9XBqJIimWzJ00H8WaqCE9jbZC1BHPCQkJ8+fP79ixI9nViy+++NJLL5FL/eUvf/niiy+QJxwPVgZHQnZla2u7a9culEu8Y60cpS6esSDIECoTHR2NezhXD/5FOC5cuMBf8iEKpKWlUZiwRwcfeOMHOCZnyc7ORiZWrlxJNkYj161bd+zYMXK4yspKKqrawBG4FqSQY6akpOB4kLAFCxagR7icU6dO5eTkIFIyc5JInhWqoCMYSSfCwsJIOaysrFq0aEEi9P3333/00UcoyR/+8Ic///nPpEyff/45GuLo6GhsbKyvrz9lyhQCE8MhbnuoApMXxDWhyvYHQuCrUDb9gro14VAUu3nzZlVVFe1E7vAlFGO72IjIcBX8+6uKbETTEA2ciqqiqhh/QdVIXrAXYdyxYwd5VHx8vDiFKCzRWBRroob0NFoMUUf05tX92HWnTp0+/fTTn3/+WUdHx8TEBBuB/8B2iJSF/IPtlpaWq1evxgaxvS6u76M6FGH8KKiq/C4UpnkIhAr+/e3qT1BFIpE8OiLSWcVLS0vJT0gh0Aqcyg8//NCrV6/x48eztG/fvt3V1fXbb799++23cTnsnTlzJolNbm5uUFCQg4ND586d+/Tps2/fPvyQMBYcVlviVFy+uJlED6CfWVlZ+/fvRyT9/f0LCwuVchLNRrEmakhPo92gI2VlZVu3bkV3kKQtW7YgUpiY69ev42bQGhIdkpWLFy+KPMza2nrBggXIE1kOuwhv5UASiaRJg1YgCDdv3mTZRiJYv2fPnt27d2+kw8nJac6cOUeOHElOTmaxz87OZq+NjU2HDh2WLl167tw5vEtlZeXt27dxANiasWPHUqt///6bN2+Oj49nF0dGTLTC1pAp5eTk7NmzZ8aMGdOmTSMhXLNmzahRo6ZOnRoVFUX/KOUkmo1iTdSQnka7QUSIz8WLFyMx48aNy8jIwMEQtGxXgdzU1NSkp6d7e3vjafT19SdPnkz0lpeXY2sooBxLIpE0XZAFzEdiYmJAQMCkSZPMzMwMDAzs7e09PDwOHjyIayHPEXdGKcaWvn37Ojo6hoeHkx0JvwIUKCoqCgkJwRAYGhra2touWbIEh1RbW0tFrRCTW7dunTlzZvDgwd98882nn3769ddft27d2sjIaO3atWgpV6GUk2g2ijVRQ3oaLQYFQWtwJ8SniYnJ+vXrH/jcCf8SqHfu3ElLS/Px8Rk0aBAGaPjw4fv27bt+/Xr9d5olEklTgrhGEIjxkpKSmJiYnTt3Tp061c7OzsLCol+/fnPmzMG7JCUllZWVqVwLWpGXl7dx48bevXu7u7uzl+psr3/A0tLSixcvenl5YXo41PTp00+dOlVY91NNmi8mt2/fxqjh2N5///0XX3zxrbfeateu3ezZs3FmN+VHuLUHxZqoIT2NFkP4kXOQdZmbmyMuJ0+efODbSfeFqg725ufnHz58eMSIEbq6uojali1byM8IcvYqpSUSSVMBNcDNxMbG+vv7Y1BsbGxIfjAruJmgoKDk5OSquu+Oqm9E+BcfM2/ePFtb2+XLl5P2oBtil4CSlKmtraWY+Kwixxw1ahQ5UlZWlubf+qWFGRkZXBqy2alTJysrK09PTwwfXVG/HyQajmJN1JCeRoshOG/cuOHt7U1wIljx8fEE5G/EJLvIsdC4I0eOjBkzxsjICNnatm0b2oRCyXiWSJoARDGxjDiUl5eLXxKYOnWqg4ODsbGxvb399OnT9+7de+XKldLS0gfeo0UiLly4MH78eAzQrl27iut+kU3Z9wtUYePNmzcxBxx/+PDhhoaGmBssjnhqWJPFhLbV1NRcvnx59+7dGzduxNslJiayhSuSAqhFKNZEDelptBi0A20aN24ciZf4Pm9lx8MRYoStOXfuHLmaeEd82bJlZHLimWIZ1RKJVoObqaioSEtLCw4OnjlzJgGur69vamo6bdq0ffv2kfmUlZXdvn37gbaDLXfv3g0JCRk4cCAG6MSJE+JhGmV3PSjJdlxRYWHhsWPHyJHEWdasWcMphEVQimoYouWIJ66uqKiosrJSvv+ujSjWRA3pabQVIpA87NChQ2Rgw4YNCw8PR0eUfb8HckNhcevYxMQEZzNlypTz58+LhwRlbEsk2gUxC9gRVuj09HS8y/jx483MzDp16tS3b19PT0+EApeD1xGPvCjV1GBXbW3tnj17SJPEb9Cy9v+GILALMUGIxOM1RkZGXbp0QUxImTiXJudINIyLFWhsIyW/gWJN1JCeRlshG0O8lixZYmFhMXv27OTkZNRK2fd7CCVCvK5evbphw4Y+ffpga9zd3UNDQ1U/WaAUlUgkmg3RihqQkCQmJu7YsUO4GT09PeLa29v71KlTqampJSUlt2/f/l2TwQJfXFy8bt06W1tbNze3lJSU+g8IPwwUo7q6Ggny8fHh1N26dRsxYsTRo0c5FA2TYiJ5HijWRA3pabQVtCYiImLw4MH29vZ+fn5oFoKl7HsEEBr0i4Nga6ju5OREgoUSnTx5Ujwrp5STSCSaDZaioKAgODh41KhROjo6P/30k7m5uZeXF64is+4Hqx/940gc6vr16+IBYU9Pz7y8POr+bkUhJnimnJycXbt29e3bt1WrVgMGDNi/fz8NeyxdkkgeEcWaqCE9jVaCgpAY7d2719DQcMiQIZib376l/EBQIqAiunPo0CGO07VrV5Roz549aNmj5GcSiaSBEWFLsBO5iMC1a9cI2EmTJhkZGXXo0MHS0nLWrFm4mdzc3NraWnHPVaDU/03u3bsXHx+PN7KxsdmyZcujP2MnTkH10tJSzj527FjxeyyrV69OTEzE7tCSR/RVEsmjoFgTNaSn0UrQDmzHsmXL9PT0PDw8MjIynkYvkK3y8vIjR44MHz4cW9O7d28/P7+srCxpayQSTYNIJ/xxG0S9+GUDU1PTNm3aGBgYuLu7BwUFZWZmErlK6ceBYKfi2bNn+/TpY2dnx6Ee5SbNr6B5FRUVUVFRkydPFk8Ne3l5JSQkiO8ClbZG8qxQrIka0tNoH4jCrVu34uLiSIaQjG3btpWUlDyNUlAXueEgYWFhU6dO7dGjh4ODw6ZNm5KSksSXUEkZkkgaHSIRz0H6gZs5duzY4sWLnZycdHR0evXqNWbMGF9f35SUlMr//oHYx4JaNTU1Bw8etLW1dXFxOX369CPepKmPEBMsV2Rk5Pz58y0sLNAoT0/PM2fOFBUVPcHtZInkgSjWRA3pabQPRAFdQ3qsrKz69et36tSpp7yhQl1Av1Ci2NhYlKhbt25GRkYoEQkWModIiTJKBYlE8vwRQUe8E5u4gaqqqvT09BMnTnh7e4sfYyJOhw8fvnv37rS0tNpffp1AoBzicSDMCwsLSWbwNBMnTkQKOPUTHEo0gHQoOTl5w4YN9vb2urq6EyZMOHz4sOpNbVBKSyRPhGJN1JCeRvtAerKysry8vIyNjWfNmkVy9gTplDocgSOjjBxQ/DJU165dPTw8wsPDteVbzyWSJgOxJtwM5qCoqIjsAk9AvkEaY2Ji4uDgMHnyZNxMUlKS+IT208cmB7l27dq8efNwIUuWLOH1Ex+TirT89u3b2dnZgYGBgwYN6tWrV9++fX19fTMyMrgi9ipFJZInQrEmakhPo32Q6MTExAwYMIB0yt/fv7i4GAV5YvVRIQ6CjKJEpIObN292cnIyNDQcM2ZMcHBwfn6+vG8skTQYxBoRh1+Jj4/fs2cP2QtuxtTUlL8zZszYv39/YmIisS/cDCjVngICH+c0evTo3r17Yz6e5h1t0SS4d++e+AjCpEmTunXrhhVbvXr15cuXa2pqZI4keRoUa6KG9DTahJCJ6upqMrYuXboMHjw4KioKJVJ2PzsQyszMTHSTBAtbw4lQ1ZycnKd8k0sikfwGIsDhP3VfH5WcnEwMzpw5087OztjYGKvh4eFBGhMXF4fhwC5QUqn51HAozhgZGUkmg206cuQItuOZHJ924r3Cw8PF48yAP+NEqje1lXISyeOgWBM1pKfRJoh/kpvs7OyVK1e2bt16/vz5WVlZz+neCapKjnjs2DF3d3dkCD3dsGEDqeFvf6+oRCJ5MkR04wDKysouX77s6+s7ceJECwsL3Ez//v3nzJmzb9++lJQU9j5bNyPg1ByZZMnc3HzUqFF4jmeVwHAQxAQHk5qaun79+r59+/bq1YtTBAcHix/IlHoieQIUa6KG9DTahFCHS5cujRgxokuXLrt370aGnpOnAU5HOnj69GmyQ2SIZBEvha0hn5MyJJE8Ewglwb///e/KysqkpKSgoKCZM2eamJgYGBjgMCZPnhwYGJiQkCDuzTy/HCY/P3/r1q3iPor4XnJapex+aoRdy8zM3LNnj6urq6Gh4cCBA/38/LA1qqeGQSktkfweijVRQ3oabQJduHnz5sGDB0ndHB0dyaVu3779/ISAIyNDpaWl4mOZZmZmVlZWXl5esbGxVVVViKDUIInkKSGIcDMVFRUZGRlHjhwR7zSx5OMt3N3dyVvi4uKKi4tv3br1XN+p4eDp6emEOS5q7dq1ubm5z/YOCodCvtArnNPx48cnTJjQrVu3vn37btiwIS0tTTw1LPVE8ugo1kQN6Wm0CcI+Ozt7yZIlXbp08fT05DVbnut9GqFEKE5qaipKZ2lp2alTJw8Pj6ioKHJKdkkZkkgeFxFZQPxiVljmT5w4MWPGjF69ev30009Et5ubW2ho6LVr14gy1VPAoNR/1nBk8cmDIUOGkLoEBARw3mduMjgaisFhyYg414IFC3r06KGjo4OgxcfH1/8sulJBInk4ijVRQ3oabYJcCqUjuenZs+exY8fI7RpGAoStIY/cuXMnZ+/evfvo0aPJKWnAMxc+iaRpQ7wQNTgVfAMxhZshSSBb6Nq1q7W19dy5cw8dOpScnExw4TMo+fySFhU0iQAPDw+3srKysbEJCwt7fveExOWLX9xcv349p8PJTZ06FWV7rm+uSZoYijVRQ3oabQId3Lx5c9u2bR0cHMTNYWXH8wehuX37Niclh+PsLVu2HDBgwLlz58gypQZJJI8OizqRy/p9/Pjx8ePH6+vr//jjj6zrs2bNIlG5du0abubZvu/zu3Cu6urq4OBg0hVnZ+eYmJjnfXZsDdKRmZmJntjZ2bVr127gwIHYO7zOc32LTdJkUKyJGtLTaBPZ2dlubm4//PADaU1tbW1DmglUhtNhqm7cuLF3714MjfgwOa8xOmxnL2WkGEkkv0LEBas4TgXrwELO4u3p6Wltbd2xY0c9Pb1x48bt2bMnJSWFvcSRCCWlcoNA24qKijZs2GBgYDBlypT09HRlx3NDXCa6wXl3796NnnTt2nXQoEHoCSp3586dhu8EiXahWBM1pKfRAuok8T6hoaHkc5gJIv9ZfdLycUFrysrKwsPDJ0+e3LlzZzMzs1WrVqWlpdXU1KCMop1KUYmkeSPCgZDBzRA1eIUDBw5Mnz4dN0PsdO/e3d3d3d/fPzU1tXE/S/jvf//72rVr06ZN69Gjx7p16woLC5Udzx+uuqSk5NSpU+hJt27dzM3NV6xYgb0TOVsj9olEw1GsiRrS02gBBDZ2AROzcePGNm3a9OnTJz4+ni3K7oYFoUEBb968GR0djSIjQyYmJshQXFxcZWWlvG8skQhUYVteXo7pP3r06LJly/r27dupUyd9ff1hw4b5+PgkJSWJr55r3PUby5WQkODi4mJsbBwYGEiTlB3PH66ay+eMFy5cwO3h80xNTRcvXhwTE/OcvolH0jRQrIka0tNoAUT13bt38/LypkyZgqeZO3duUVFRY4U65wXEGhm6dOmSl5cXqRVSuGjRoqioKFIuaWskzRzmPx6FmBW/oX3y5EncDI7B0NCQSBk1ahTJCUu4eApYuJnGDRmaSvBiJqysrMLCwnASyo7nj7h2OgE9wcfQUba2trq6urNmzQoJCcnPz5e2RvJAFGuihvQ0WgAhXVVVdeLECWtra0tLy2PHjtXW1ir7Gok6IbrvtK5fv759+3ZkqEePHhMnTjx+/Dh+i+2Nm3dKJI0FMx+nQsBmZWUdOnTI09OzT58+Ojo6uJmxY8fu2rUrPT29urpa5WaUao0KfuLo0aPiiZa4uLhGuQdMV9AnZG4BAQH9+/fH1jg7O+/YsUM8XkOT6C6lqEQiPY1WQzAXFBQsWbIEZXRzc0MrGzKR+g2EDGVmZu7evdvV1ZU8b+TIkfv376eFN2/elBokaT4QC0x43HxZWVl8fPzBgwcXL17s4uJCHtKvX7+pU6f6+PhERUXl5+er3AwolRsb8pCNGzfq6+t7eHhguRorckUHYmvI3xA6ExMT7OCmTZvoT/m+tuRXKNZEDelptACCmageMmRIly5d1q9f38CfePptUBkhQ0FBQaNHj0aGSPXIrq5evSru1ijlJJKmC1Hwn//8R3yHU2Bg4PTp03v37m1kZMSSjEvYtWtXbGwsboYCxLJSR5MgWqdNm9a9e/e1a9fSzka0DkJP8IVhYWGzZ8+2srKys7NbtGjRxYsXa+SnECT1UKyJGtLTaDoE8O3btw8cONCrVy+E8syZM5r2BjPGhSYhhSdPnpwxY4a5uTlSvnr16mvXrom7NVKDJE2S+6tr3SOuVVVVCQkJ+/btmzVrlo2NjXAzOJs9e/bgZm7cuEEIi3dPNDAWaFJcXJyTk5OxsXFwcDDX0oiN5NT0En2FrYmJiVmzZg09aWlpieUKDQ0tLCxEamSmJAHFmqghPY1GIyK8srLSy8urXbt2U6ZMycvLE8mKUkIzoD0oe0VFRVRUFLKOOJqZmXl7eyP08k0oSdODCQ9MbBxAamrqwYMHJ0+ezJzX09MTC3BAQEBiYiIL851G+s6FR0RcRXh4eOfOnR0cHLARmvC+Nq1CT8SX8m3fvn3QoEHYxKFDh9KrOTk5d5/pj2tKtBTFmqghPY1GQ+iiiRkZGSNGjNDR0SFrqamp0UyLQFMxW9ivCxcuLFq0yNraulu3buKmMbqvFJJItB8x1aurq7Oyso4cOTJv3jw7OzvcjImJyfjx4/fs2YObKSkp0eR7MypoG9Zh375933333ejRo9PT0zWhtbQB6DrsC50cFBQ0ZswYerhfv35bt24V72srRSXNFcWaqCE9jUZDYOMSDh8+jEVwdHQ8evSopr3xVB8ahojjupKTkzdu3GhoaNi1a9dJkyZFRETcvHnzvkrJ7EqitYgJDKQZhYWFkZGR3t7eFhYWbdq06dSpE4bgV26GkkpNTYUW0s6CgoLly5d/++23CxYsyM3NVfZpBrQQ+1JcXHzq1KmxY8eS14lvBRSfk7g/GFJSmiuKNVFDehqNhkwlLy9v7ty55Chz5sxJS0vTzJs0KpAYkV0h+sHBwba2tl9//XXfvn1PnjwpP7kg0VLqls77P9KENS8qKsLNLFy40NjY+LvvvuvcuTNrbWBgIKssbp4yWuFmBOKirly5Mn78+FatWu3YsaO0tFTZpzHQSLq0trYWv0i3GxgYtGjRYtasWTQbSdGi3pY8WxRroob0NBoNGSGhO3jwYHNzcxSHfEUrAlhoJbZm3759jo6O7du3d3Z25nV+fj62RsPvxkskKpioTFcmM2tqTk7O+fPnV65c6eTk1LVr1169eo0ePdrPzy8uLo7ApIxSR3vg6kg/Tp8+3bt3744dO4aEhDT6F189DJWtWbdunYmJSYcOHUaNGnXs2LGysjIugQsBpaikeaBYEzWkp9FoSESOHDliZmbm6uoaFhamsYrzK4TEYF9IahFKGo8G2dvbb968GaNz69YtmV1JNB8xh2tqanAzZ86cmTdvXt++fQ0MDAwNDXEzPj4+sbGxpaWlrKlaatNpM1kTyQYWrUePHgkJCVyvsk/DoKl08u3bt7OysvCRFhYWP//884ABAwIDA3Nzc7kK9ipFJc0DxZqoIT2N5sLCn52dvWLFCh0dHU9Pz9TUVO3KBVEZJBIHc+7cucmTJxsZGVlbW5NmXbp0qby8nF3S1kg0DeakWD5xKsxSgi44OJjoc3Z27tatm7Gx8ZgxY3x9fePi4sp++TUigVJfq6DZZE2EJP5g8ODBWDdNdga0VkgKmVJQUNDIkSMxlw4ODrQ/Pj6+qqpKZEqgVJA0aRRroob0NJoLbuDixYvjxo0jiyI1KSkp0a5cRGgQkEWxBixevNjKyqpXr16LFi2KjIwkwZW2RqJpMF1xKriZ9PT048ePM2n79euHmzEwMBg7duzWrVsvX75cXV3N8klJbZ+9tP/69euzZ89u167dwoULCwsLNf+KaCGdj4OJiIiYOXNm9+7dLSwsaHxUVBSSIlymUlTSpFGsiRrS02goRGZxcXFAQICTk1P//v3DwsJqamq0NFxRf/Fe+Nq1axEgW1tbxOj06dPiKQT2KuUkkkaCyAJMdkVFxbVr18RvaLu6upqZmZmbm48ePXrNmjXR0dFFRUWqd05Bqay1cAkxMTFcJlkTUsO1a8VF0UhGqrKyUvyGrr29PcPk4eERGhpaUFBABtUEhkbyuyjWRA3paTQUVvqrV68uWbLE1NR0wYIFaWlp2ntXg2YDi0FGRsbGjRv79u1L4uvu7h4SEsIiIR7xU4pKJA2LmJwE182bN2/cuIHVXrFiBVmEnp5e9+7dhw8fvmXLFtwM/pvFsmncnlHBhRw+fFj8rj7+gAjVikujkYwCY8GQpaambt68mcQPSRk7duyBAweuX78uMqUmM0ySB6JYEzWkp9FQENCIiAii1MrKyt/fn7Vf2+9n0H4uKjs7OzAwcNSoUXi1IUOG7Nixg7RY3jGWNDDMNwGWurq6OjMz8+jRo/PmzRswYABWxtraGs+9bdu2CxcuFBYW1tbWqu7NgHIILYcL4aLIMdq3b48n4DK1KGuqG4f/99RwcHAwUomkcCFr1qwhd1INmVJB0uRQrIka0tNoKOXl5bt37+7du7eLi8uZM2ca90dYnhVcAktIbm7u8ePH3dzcevXq5ejoSJolPrkgBUjSYLAcsoTfqvv2/cOHD3t6evbt27dr165E3JQpU8RvaOfl5dX88ruJSrWmAlfEdbHwz507t0WLFmPGjOFKtfHeBg1GOm7cuHHixAnxQQRLS0vxqyxcnbbngZLfQLEmakhPo6Hk5OQsXLiwR48eM2bMSE9PJx1pGsLKVWBrSkpK0KCJEyf27NlTfBiKpYU1RikkkTxPmIQElLg3Q5SR3It5OGnSJNzMxYsXVW5GG5f5R4GLItzy8/PHjx/fvn17Ly8voTDaeLG0+d69e8XFxWFhYfPmzcPTIJu8wJXiWZVCkiaHYk3UkJ5G40BGyTwQ1uHDh5N2bNu2raKiosloa51s3s8RuagLFy4sXrzY1NS0U6dOaFBMTAypVdO4TIkGQhAx8W7evCl+Qmj69OniVyft7OymTZvm7++fmpqK2yb6VG6mqc5GrgsfEBsb26dPH/xcQEAA/yr7tA0xTAxZVVVVcnLy1q1bbW1tu3TpMnTo0EOHDhUVFYnRBKWCpEmgWBM1pKfROIjAsrIyVMbe3n7gwIEkH6RQyr4mBBJDFpWWlrZq1SodHZ22bduSJeNyyI+VEhLJs4NljzjKzc0loJYtW4abadOmTefOnYcNG7Z3796MjIzm9kX7d+/ePXbsGIYGS0fcNYG7pEgKF5WXl7dz507Es0WLFg4ODgxuQUGBeGpYKSdpEijWRA3paTQLJJXwy8nJ8fb2NjExEb/x1CTflOFKxQMNJM0+Pj5ijXFzczt9+rTqG/lAKS2RPD5iCuFUcDPk66zcK1eudHR07Nixo66uLnn89u3bL1++XFpaSgHirvnMN66USybuOnXq5Orqev369Saw5HNRXIV4vObIkSOML5JiaWm5adOmq1evcr3svT8hpKo0CRRroob0NJoF8UbsXblyZcKECaRQaK7WfdXeIyLEBcR9qaNHj5Ivtm7deuDAgQcOHCgsLCTlalZ5s+QZopparHDMrsTERBY2a2vrr7766qeffiKJ37VrF9lCdXW1sDICpXIzAEnh2hcuXNi+ffvp06drxbftPQpiHBn32trahISESZMmtavD09MzPT29pqaGZKlJymkzRLEmakhPo1kQb8XFxf7+/n369HFxcTl9+jRx2DTk5mFwdQgNV83FDhs2zMDAwMnJaevWrdeuXRMa1LQvX/IMub+g1SXrOJWqqqrs7OyIiIhVq1aJT2jDkCFDMDdRUVHMN5KHZmua6Z/MzEwSpx49eqxevbq0tLQp9QPXwsjeunULW7NixQoLCwsuE+sWEhKSn59PstQ8B72JoVgTNaSn0SCINJZw1vI5c+aYmJjMnz8/KyuLRLNpRyBXJy4cBxMaGurm5oatIZPeuHFjUlISG+XdGskjoppIubm54eHhuJlBgwb1qgM3s379+gsXLty4cUPElAqlcnPi5s2buD2snqOj44EDB5rGV0WoEMMKDHR6evr27dtJk7p27TpixIh9+/apJoBSWqKdKNZEDelpNAjCjPwJ2R08eDCeZteuXeKXZZpD+N1XoP/934qKCpaimTNnWlpaYmuWL18eHR2N4Iq7NaCUlkjqIeYGkYKbISXAGa9evXrYsGE2Njbm5uajRo3asGHDmTNnVD/gLCcSMRUUFGRmZjZy5EhC7JaWfIPw48JYM+LZ2dk7d+50dnbG2uJx9+zZk5GRgauTM0GrUayJGtLTaBDEWG1tLeGH1hCBFy9eVL3Zr5Ro6tADaE1SUtLKlSutra3ph6lTp549e7a47pehpABJHghuprKykoz86NGjCxYsGDBggJGREZNn3Lhx27Zti4uLY69YwARKtWZMWVkZPq9r164eHh45OTlNOLi4LqZHUVHRsWPHpkyZYmpqamdnR7IUExMjZoVSTqJtKNZEDelpNAhij8UblenWrdvMmTNJK9mi7GseIECoDFkjtmbNmjVOTk6GhobTp08/fvz4jRs35LM1EhXMBBD3ZjIzM0NCQry9vQcPHmxsbGxiYjJs2LDNmzeL52bu3r0rl6760G/5+fnz58/H06xYsQJ/0+R1BtNWUlJy7ty5RYsWMUPIl+bNm8e/qq/+AqWoREtQrIka0tNoEHfu3ElJSenXrx8L+aZNm5rtd3tz1SxUqamp27dvpzfIuUeMGHHw4MHCwkJ5t0YCzAHVczOsTCzMws0wVUaNGrV+/frw8HCWbQpIH6wOfULOMG7cOHps586d1dXVTV5nuECuury8/PLly0uXLrW3t2eqTJ48GSss7wFrKYo1UUN6Gk2BoKqqqtq3bx9C4+LiEhYW1mzlmKtGg0ivWbGOHj06dOhQXV1dOzs79Fc8EiEFqHnCuMN/6r5vhqUoNDR04cKFffv21dHR0dfXx81s27bt4sWLN27cuHXrFsVEeaWypA46hM45efJknz59nJyceCG+uEXZ3UQRM4EpwbWnp6eLx2v09PToBF9f37y8PGFrBEodiWajWBM1pKfRCAgkZIXQInUwMDDw8vLKyspq8kLz29An2BqWruPHj0+bNq1Hjx7W1tarVq2Kj48Xz/cp5STNA+YDC09NTU12dvapU6eWLVvWv3//7t27kwNMmDABN3P+/HksLwVk2v0b0DPV1dV+fn4mJiYjRoy4dOlSs/psM7qBrWEKkSy5ubl169bN3NycuSS+vUb4YKWoRLNRrIka0tNoBAQSypKQkGBmZoZGBwYGEmDNPLq4fEBlSkpKIiIi5syZg9tjDVuwYAG25s6dO0o5STOAmYBTuXHjRmhoKI4fN8NqZGNjg5tZv34904NdtbW14tYmKNUkatA5FRUVK1euJJqmTp167dq15raQY2sQ29LS0vDwcA8PD0NDw65duy5cuBB7J39vTotQrIka0tNoBIQZMbZr1642bdoMGzYsOjpa5poCOoGuqKqqunz58uLFi0kuWcxQIrpIPAdAAdlRTRIxsqy4rEB5eXni3kyfPn1Ebj127NidO3fGxsbWf24GlMqSh0B/4v9mzZpFN+IOed3cOo3rRTeYMJWVlajKqlWrLC0tdXV1J0+ezBxDh+kiISxKBYlGolgTNaSn0QgIobS0tJEjR3733XfEGELDFmWfpE6G0KDs7GwfHx9ra+t27dqRoAsBarZPHTVtxMKDm8GynD17ltXX1ta2bdu2nTt3Hj58ONMgJSWFrLq53WN4eu7cuZOamjpmzBgzM7PNmzeXl5crO5ofzBzh8Pbs2YNL7tixY79+/Q4cOFBQUMDEkwqs4SjWRA3paTQChAbhNjIy6tSp07Fjx27fvi2Vuj5CfegW8nUEyMHBQV9ff/To0YcOHRK/DCXzqiYDQ4lPvXnzJotNVFTUpk2bnJ2d27dvT2j0799/w4YNV65cKSkpEU+2ykF/XGpqaiIiIlxcXOjM/fv386+yo1nC/EE9MDGBgYEDBw5kmvF39+7dmZmZ8kv5NBzFmqghPY1GUFpaun37dhIFIio+Pl7Gkjp0CNy7d4/EnVwKRdbT0xs0aFBwcDBG59atW3SaUlSinTC+OFeGEp96+fLlnTt3DhgwoEOHDj///DMudvny5VgcIkVa2KehvLyc8LGzsxs3bhx5FNZQ2dFcYSLhoYuKio4ePUqapKura2tru379+tTUVKaivBGosSjWRA3paRoZAgaSkpJGjhzZtm1b0lCiS0bRw2Axw9aUlZWdOHFiwoQJBgYGffv23bx5Mx0o8yotpS4C7qfLNTU12NNz586tXr3a2dmZ1YXx5cXatWsvXbpEXEjn+pTQzwUFBSzYRkZG8+bNS0lJYTlX9jVj6Bb6AVWJi4ubO3eu+IEwXly4cEE+XqOxKNZEDelpGhlCBaU+fvx4z549u3fvfv78efn9K78BPQOoTElJSXh4+KxZs0xNTcUvQ125coVFUeZVWoQYTfFO07Vr1xjQjRs3Yu4ZU2Nj4379+uFmsDi5ubmqd5pAqSx5TOg6ouPq1atz5szB06xZsyYnJ0f2J9RNq/udwzzEPXt7ezs4ODADJ06cePToUfGlfNJMaxqKNVFDeppGhlgicyIx7dChg6ura2ZmprJD8psgQBUVFdHR0dgac3Nza2trLy+v2NjY5vOrn9qOWEUw9NevX8fKEwKjR4+2s7OzsbEhEJYuXXrs2LHs7Gz55sizgg6nM1mzx4wZQ7z4+fmxWiv7JHXQReRFycnJW7duxVJ369Zt2LBhgYGBeXl5d+u+xQeUopLGRrEmakhP05gQIdj/y5cvDx8+XEdHZ8OGDaWlpco+yW9C14m8KiYmZsWKFX369DEzM5s5c2ZoaGhRURGpv1QfjeX+ylC3eFy9evXkyZPLly9n5bC3tyc5xtYQBWfPns3KyhLfNyPz42cFfY7jDwkJ6d+//+DBg48ePVpZWansk/wCqoLzw2fv27dv5MiRJiYm+GwsTlJSUlVVFXuVcpLGRrEmakhP05ig13fu3Dly5IixsbGlpaV440nZJ3k0EKBr1675+vqyInbt2hV3eODAgRu//OAlKOUkGoAYEdxMbm5ueHj40qVLMaM9e/bU09Nj/di0aVNkZGRxcbG0pM8DupSUyd/f39TU1N3dPTo6+tatW8o+ST3oKLxLWVkZU5Q0qVOnTvTYokWLIiIiysvL789gOTk1AMWaqCE9TWNC5BQUFKxZs0ZfX3/ixInp6ekyD3hcVHnV7t27Bw4c2L17d9JQcqzs7GwkW6qP5oCDF08Bh4WFLVu2bPDgwSwVGJoRI0asXbsWQ8+QVVdXy2+bfE7Qq+IBYV1dXU9Pz4yMDLyjsk9SDzqKuco8xMGI28Dm5uZGRkaTJk0KCQnBF8opqgko1kQN6WkaDaKC2Lh06dLYsWNZiX19fYuKiuSd9seFbhQ9WVhYePjw4fHjx7dr1653797bt2+/evWq6m4NKBUkDYjS9XWJL34lNjYWB9+nT5+ff/65TZs2Li4uW7Zswc3k5+djQCkjCiuVJc8UtCUrK8vLy6tDhw6YSPpcqs0DEZMQ6J+bN2/SaRs3brSyshKPPB45cqS4uFjMVaWCpDFQrIka0tM0GoREZWWlv7+/hYUFazAJAfEj4+SJwb6UlZVFR0ej2sZ1zJ8/Pz4+XnzbrJTvRoGex6wUFBRgXBYuXIib6dy5c8+ePceNG+fj43Px4kWcqOp3mpQ6kueDeEDY3d3d0NAQ2SkpKZF9/rugG3fv3s3JyQkODnZzcyP5tLa2xhGSL8nbwI2LYk3UkJ6m0SBaMjMzFy1axOo7ffp0wkbe0nwa6DpxMyAxMZHls1evXgYGBvPmzUPH2Sg9TQPDcEBNTQ1mfeXKleLejK6u7tChQ7ds2YKbweio7s0odSTPk6qqqpCQkOHDh5NB8YJ/Zc8/CvQSylxcXHzmzJmpU6cyh1HspUuXpqSkYBNlHzYWijVRQ3qaRoNVluQVibGystq5c2dFRQX6ruyTPBHoC3148+bNy5cve3t7W1hY6Onp4RcjIiJYXOXy+byhewX//ve/xbMI2Jdhw4ZhLrt06eLi4rJ8+fKzZ8/euHGDxUAORwPDquzv7+/k5DRixIjY2Fh5m+HRoaOYrpWVlZGRkbNnz+7Ro4f4KW+6UQgLYi47s4FRrIka0tM0DuKWJlbG3Ny8X79+UVFR8qv2ngn0IX0rnhr28fHB1qA+48aNCwsLKyoqIt+S6vOcoGOxMhhK+vncuXNr1qzBxGBlwNnZefXq1fHx8Rgd1RAIlMqS509OTs7KlStNTEw8PDwyMzPl+32PjpirwPROSUlhbvfq1UtfX3/ChAknTpwQs5q9SmlJg6BYEzWkp2kcEBTSpgULFmD5J02adO3aNbYo+yRPB+LCqknyxOK6Z8+ePn366OjokJseOXIkPz8fu8NepajkqRG9zeytra2le6Ojo3fs2DFw4MBWrVq1bNnS3t4eNxMXF1dVVUUZ4WaUmpIGhJ5PS0ubO3duz549ly9fXlhYKMfiCaDTSD6zs7P9/PxsbW3btGnDVD9+/PiNGzfYLru0IVGsiRrS0zQCzPtbt27FxsYOHTrUxsZm06ZNJSUlxIOyW/LU0MPAIpqXlxcUFIShMTAwcHV19ff3T09Pp/Nlbz8T6Ma7d+/iV3Jzc6OiojZv3jx69GjxJJOTk9OiRYvOnDlT/7kZUGpKGpZ79+5dvHhxwoQJ5ubmrMfie1aUfZJHhk5jzpMXYd/JlxBwPT09Z2fnnTt3pqSkiI8jKEUlzxnFmqghPU1DI6KioqKCtdbCwmLw4MFhYWFylX1OiPthISEhY8aM0dXVtba2Xr9+fVZWFisxHS5l/ckQcxjITenemJgYHx+f4cOH08OdO3cmf12xYsWFCxdIXm/evClVvtFhvFhuDx06xOrbr1+/0NDQmpoaZZ/kMRGTXwiLeGq4Q4cO3bp1W7p0aWJionxur8FQrIka0tM0NEx3FtTMzExigCV23rx5qampUvefH6hPWVlZVFTU7NmzTUxMxFeCkrOykV1SfR4Lugvot+rq6pycHDR93bp1I0eOxJ2bm5u7urriZk6dOsUueW9Gc2AIysvLt2zZwhiNGzcuOTlZfl/5U0KXMr2rqqouX77s6emp+lK+EydOYOVReDntnzeKNVFDepqGhrlOzsQSS17bp08fX19fYgDjr+yWPAfoXvGh4sWLF1taWvbs2XP69Onh4eEVFRXS1jwi9BKg47dv32bGnjt3btOmTWPHjsXNgIuLC30bEhJy9epV+cl5TYOBKyoq8vLy0tPTmzlzJsMnk6hnAh2Ld4+Pj1+/fr2TkxPdO2rUqP379+Pppa153ijWRA3paRoa5L6srGzfvn1mZmYjRowgqWUNkLP/uUL30u1YSdRn3bp1tra22JqJEyeePHmysLBQ2prfhf5hFUS+s7Kyzpw5Q8Y/fvx4BwcHOzu7IUOG4GaCg4NTUlJIW+/duyduzyg1JRoAk59VFh+vo6Pj7e2NlZem81lBTxIXWHk/P79BgwYZGxvj78lUr127Jj+O8FxRrIka0tM0NIh+RkYGOVO3bt08PT1TU1Pl5wAbAHoYSJ7y8vJ2796N7hgaGg4cOHDv3r3Z2dnyg/TqiB4DPAp28Pr162FhYdiXvn37GhkZWVpaDh8+nPQ0MjKS9bKmpkZYQxXKUSSNDWOBwuDmR40axZxn6WU05QA9K+om+/13Y4uLi0lQJ0+eTL5kbW29cuXKS5cuCfsoyigVJM8IxZqoIT1NQ3Pz5s3z58+PGDGCVcHf37+oqEjeJ2gw0Bd6G1sTHBw8btw4XV1dZ2dnHx+f9PR0aWt+Bb2Bm2G6YlnOnj27evVq+opFES/Oi82bN+NmcnNzKUCX0rGg1JRoEozLrVu3QkND+/fvb2dnd+zYMf6VU/3ZQn8SBeXl5efOnVu0aBGexsLCYtasWadPnxY3L2WHP3MUa6KG9DQNCjO7srIyMDDQ1tZ20KBBERER6ItcDBoShuDu3bsFBQUkVe7u7kZGRozF+vXrr127Jr9hArh8oB/ojZKSEnLNdevWiR8879q165AhQ+ir8PBw1W9oy9mr4TBANTU1u3fvZqF1dXWNjo6Wj3o8D+hSYWvi4+M3bNjg4OBAyJA4nTlzprS0tKkmrvfF4heUTQ2FYk3UkJ6mQWENYDHw9vY2NTWdOXPm1atX5SLawNDb9DkSU1FRERMTI7720NjYePny5fKjmFw4l8+aJz7QgTQPGDCgQ4cOHTt25MXmzZvF7zTV1v3qpJy6WgEDylRfuXIl89zDwyMnJ0fa0OeECJ/bt2/n5ubu2bOHrFVXV7dv374HDx688cuX8ilFtR8uluWMxKasrIy/DX+fW7EmakhP06DcvHkzKipq8ODBNjY227dvJw9WdkgaFqE+hOKVK1eQeysrK5KqadOmnTt3TryZQoEGDtFGRFwsgotIsf7h7XAzaHGnTp06d+48cOBA/qVn8vLy6BxpZbQLJnNhYeGMGTOY4evXr5fftve8oXuJI/o8JCRkypQppATW1tZEUGZmplj4Nbn/aRsBjjbS1Fu3bqGQpDcCXhP+bBd3Z8l8UlJSVqxYMWzYMBLCtLQ0titHaRAUa6KG9DQNB9OFBSMoKKhnz57YmrNnz+LolX2ShqVOWO5Hr/jMwpo1a4yMjFi/x48ff/nyZYZJ3IdQSjdp6AfVvRmEycfHZ8yYMfr6+q1btzY3N58/f/7p06dFlkkxCivVJNoA44XIJCQkuLq6MpqIDyuTsk/y3BDaUllZSQaLrdHR0UHzxU95izhSymketJwWkr2cOXNmz549np6etN+9jrlz527dujU0NBSVwNwwkXbs2NGlS5d3333XwMDAz8+PjcpRGgTFmqghPU0DIVaO7OzslStX6unpzZ49W7zxpOyWNAYMihiXjIwM8Rnvrl27Tps2TXzGWzx2IFAqNCHEdXHtuDrxO03+/v4zZ85k5UOn6Io5c+YcOHCAWcqiKNwMKJUlWgJDhlU9fPiwg4ODs7Pz+fPnG3jhabbQ88h7bW1tXFwcboBVv1u3bmQIuJyysjKNDSiaRLyzToWEhGzevHngwIGffvrpq6+++s4779B+Ly8v5lJycjLXReK3ZMmSb7755rXXXmvVqhWvaxr2y6kVa6KG9DQNBPObuRIZGUnCZGFhsXv37pKSEg2c080TRqe4uJhwHTp0KPFJJJOjXL9+XbWcK+WaClzRv//9bzSIhOzChQsbN24cMWIEmtW+ffvevXsjT2wky+Tam+TlNx8Yu9LS0rVr16p+KxenruyTPH/o/3v37uXk5GzZsgXZ79ChA/p/8OBBUqY7Gvl4DQ2mVQL04dy5cy1atPjjH/+Is5k6dWpubq4q08McBwUFIRdt27bt168fr8mOlKM0CIo1UUN6mgaCtQFjGxAQYGxsPGTIEMwNM4CZoeyWNCoMBGu8+GUobI2hoSF57datW1NTU6urqxk7pZz2I64UtUKeECyu0c3NzdTUlEtGmMjDwsPDxXMzws2AUlOihTB8N27cEN+2t3jx4qqqqqY0mbUCzAE+gFEgTRo8eLDqa7HS09MJQ/Yq5TQPpkp2djZ5Dp7mn//857Jly1SywF5kJD8/H3+2atWqAwcOIBoNPLUUa6KG9DQNBG6dvJ8MuFOnTnPmzMnMzJTiomkQpWVlZadPn548eXLnzp2trKzWrFmTkJAgpKcJrO5MObLDkpKSuLg4Pz+/MWPG9OrVq2vXrk5OTgsXLjxx4gRGh4ulH6SVaRowjsjOoEGD2rVrt3nzZvF0p7JP0lAwCoQecXf8+PFJkyb17NnT3t5+48aNGv5BS1qFFWPBwtN8/fXXq1evpqkqJeQv06mysrKoqIh0Xdy/ERUbBsWaqCE9TQPBWnLmzJkhQ4b06NEjMDCQtVMz53FzhhEhaKurqy9durRo0SJLS0vxkfuzZ88Sutq70ovrun37dmFhYUREBGI6btw4MzMzro7VTvxO07Vr10QST2GBUlmizTCgTGbcuYGBASl107Dm2gjdzliUl5fHxMR4e3ujLdbW1mjL+fPn8TpoiwYODe1ReZpvvvmGBI8t9RvJa9FsLq1+++8X+gWxXQX/1t9Sv7DYBeJfcajfQLEmakhP00CwUvr6+uLQBwwYQOrPAqPskGgYBFVtbW1aWtq6descHR1NTEwmTpx46tQpwpu85FGCTUMQ0sDl0GwaHxkZSaY+cuRI8ePkLi4uy5YtI3HkSrXasUl+A4b1wIED3bt3t7e3ZwKIBUPZJ2lY6HmGo6amJikpCW1xdnYW2nL06NGCggINfLyGBtf3NGvXrlV21CG0hSu6efMmAoJmqtrPC1zO3bt3uVhsHC/YggrxLwauqKiI1VBs5CCU5CBUZxdJF4cSu8ShfgPFmqghPU0DkZ2dPWfOnC5dusyePZtBfZQxkzQKqlhNTU3FBLD24wDGjh0bHBwsbI1STuPhKhBKZCI2Nnbbtm3jxo0jNeRa+vbty1Qka1e5GSEuSjVJE4LlYfny5R07dhw9enRGRoYc6EZECAvcunWLsdixY8fQoUONjIxGjRq1d+/erKwsBkujRofG/IanwYugHikpKeRFaGNiYqJKG8nYqXjp0qUjR46Iz5CyJTk5+dChQ1u3bkVUKY+xw9kIN0NvHD58eMuWLRs3bty3bx8lH+XTeYo1UUN6mucOMwNOnz7dp0+fXr16BQQEYFfZouyWaB5iyIira9euBQYGjhkzhkx32LBh/v7+OTk5QnpAKa1h0DB0EzeTn59//vx58RvaNjY2lpaWgwcPXrJkCXkhqlFaWkoZhEmTr0XyxIhhZS1h9rZq1crT01N+216jIwZFhCdZLgs5mQZpRv/+/VnOxa/OsVdDholmPNDT0MKqqqqrV6/SfrIjOzu7AQMGoJMIJh6FaRYdHU0ShezY29tPnjyZfyMjIxcuXMgKqK+vLx5VXLRo0ZUrV5BTNGrFihX0QLdu3TDfmDwvL6/Lly/jdX67HxRroob0NM8dMYMZtnbt2jk7O2NstSjXb84wcIwUa39YWBgLg4GBgZmZGbGK0WGpwA0o5TQJVIC2FRUVxcbGiu8C7tq1a4cOHRAdRBNxETmTsDJKHUlThPFlgamoqLCwsPj555/Jj6XsaBTEIM7g4sWLM2fOZDnv2bMna3l8fHz9N3Eal4d5GuYVhiw4OHjChAmtW7f+61//yl/khVz91q1baWlpKA9u5quvvnr//fdxbJs2bZoxY0a/fv1wP3iazz777K233kKUVq5cuWvXLi4fderduzduhip/+ctf2rdvv3TpUnFbUZzxgSjWRA3paZ4vQlkKCgpGjx7dsmXLefPmlZSUaMiUlfw2jB0jdffu3eLi4rNnz3p4eBgaGlpaWq5evVrcHaUAKKUbD9EM4cDKysouXbqEvri6utJaFGTgwIE0+Ny5c8gQGireq9aEZkueKwwxCwypP168R48eBw8eRIiUfRINgAESppP0w9vb28rKSk9Pb+LEiefPnxffH9HoQUoDHnafhhZmZmbu3bsXK/byyy8LT4MbQ4IqKyvF1wy2aNEC70ImP378eCTo5MmTFy5cCAwMHDx48Mcff/zJJ59YW1u7u7vjbA4cOBAVFRUSEoL1ee+999hLMhYeHv7bLlyxJmpIT/N8YVqQFjNNWQu7d+++f/9+/m30ySp5RBgpQHpIQfAKCxcu7NKli66u7qJFi0gj2K4J/oA2oIDEf2FhIepAPvTDDz98+eWXJiYma9asQSwQJpY3ykg303xgoFldTp06xZqEr2UaMAGUfRLNgDEiJFkR8vPzt2/fzgKBdbC3t4+JidGE5xNowAM9jWg2kpKQkIDa/PnPf1Z5GnaJ+087duzQ0dH5y1/+grNZt26d+DIe8Yb45s2bO3bs+Le//e3rr79GUTFA5eXl7KIWtqZz587Ymq5du+7Zs4cDijM+EMWaqCE9zfOFsSd1xoq2adNm6NChDK1UFq1DBCoxmZWVhUswMzMjJidNmoT0MLg4m4ZXH84oWiW0ICUlZevWrSRAWC7xXcDLli07c+YMCoIuNEoLJY0LI87oL1++nPVm9uzZZNVokbJPokmIQC4oKDh48OCIESMYLwcHBz8/P4YMuyPyEFBKNyCc9IGeRkASdfXqVRcXl/qeRuyi2Xv37sWXvPXWW0ZGRggRu8SFVFdXHz161MrK6sMPP8S+BAQEFBcXc/ns4oDx8fGYpE8++QQRQ9AqKirEAR+IYk3UkJ7m+SIGfvjw4ayCS5culV9Lo40wZALCEqHZsmWLpaUlUTdq1KgTJ04Qkw1sGkRLcDPEfFJS0u7du8eNG6evr9+qVStjY2NPT0/SnZycHCGIAqWmpNnAJLl27drIkSNJlFkeNCHvlzwMhoZ1nXAW73G3a9eOVd/b2/vy5csMnLgfrBRtQGjVb3gaWsUEGzRo0AM9DWYFT/P222/b2trGxcWpPldx8+bNU6dOkXT9/e9/79GjB/6msrKS7eKAycnJw4YNY1fbtm2RWelpNBGG+fjx46w0NjY2hw8f5l8xfhIthcDLzs7euXOnvb39zz//jFvdt28fCTEOA915roN7XxLqtO/WrVsYKdxMYGAgKTiqge6QD7m7u+/ZswfXRYHn3RiJhsM8Ies1NTUlmzp06JCcDxoOo8MY4WASEhKmTJnSs2dPVo0FCxZERkaWlJQ0yse8OeMz8TQ4MwqLXUhTWFiYytMcO3asqqpKXJr0NFoAc7SwsHDRokVt2rSZOnVqRkYGK59UFq2GMSX2SktLcaguLi7du3d3cHDYtWtXeno6Ic1CopR71jBtOC+nwD9duHABUzVnzhxHR0esjJOTE7ndgQMHkBhVVienWTMHqWHxQHns7OzOnz8vp4SGw+gwRiJjYWlfuXIlA2diYkKigtSQRzGg7G3IQeRc0tNI/ot79+5hul1dXUmVtm/fznA28KSUPCdQH0IxIiJi2rRp+vr6hOiaNWsI3erq6me7eHAo4Jg3b97EzVy8eNHX13fs2LFmZmYGBgZ9+vTx8vIS33FMJidnl0QF68GOHTu+++47FkWWCulptAWGiYUjNzd3z549AwcOJMzxDQxlZmYmGUtDxjgnkp5G8v9gnBjjoKAgS0tLUvnTp08zHaWyNBmIwPLy8sjIyAULFpibm5NULVq0KDo6Wnwz7zMZZQ7CoXAzxcXFMTEx27ZtmzRpEicyMjJycXHhvEeOHMnIyCDy5Se0Jb+ioKBg4cKF//znP1esWJGXlyenhxbBSN25c4dRY/kYM2aM+O5v1vj4+HjkhXVEKfecoRnC07z44ovff//9+vXrlR11IE3S0zQvEJHS0lJkRU9Pb/r06VevXmXkBEoJiTbDOCIuBCRC4+npiXPt1avX7Nmzo6KiCEWRTgmUCo+GUqcODlJdXY0i7Ny5083NrWfPnsiEo6Mjp8PNpKencyJSOqV0HcpRJM0bZgLrzdixY1ke9u3bxyyVnka7YLBY44uKikJDQz08PNAWEicvL6/Y2Fisw/1Qf9ajKY5ZH+aM8DQvv/xyu3btfHx8lKJ1SE/T7GBcExISnJ2dWYq2b9/+28Mj0VKwHTdv3mSgt23bNnjwYHSHheTgwYPizaAnWEioQmwT+YWFhRcuXCA3GjlyJIpmbGzs6uq6dOlS3Az+WPXLcEo1ieQXmHJMSxYSJyenH3744fz58xhfZZ9Eq0AKWDguXbq0Zs0azAEiMGbMmJMnTxYXF4tkRin31AgHw5qVm5ubmJiIWUHWmEXoWOfOnd966y0zM7NDhw4ppeuQnqbZUVZWFhwcbGJi4uLicurUKcZS2SFpWqAFxD/h7e/vP2TIECzs8OHD9+/fjyl53E8riNUIvxITE4MPdnNzI+w5IIvT3Llzjx49mpaWJr4RR7ilxzq4pJnArEBt0BwctpGREUuUnCdaCgOHIOAVUlNTSW8GDBjQqVMnVn3kBfPBLqXcU8OJUJXs7Ozdu3fPmjVr7dq16enpyFpBQQGe5sMPPxw6dOjFixeV0nVIT9OMYISA+eHt7a2vr+/p6clSJFOlpgpjjcMgVnNycvbt2zdixAjSKdRnz5496A6BivSgDjgV4AVbhCNR6v9yBGZIaWkpKxAHcXd3RwvIjRwdHcVvaCclJeFm5IPAkt+F6UEe7+vri6Ehrc/MzFR2SLQQlbxkZGQgKa6urnp6eiQ54ofnntWDdByBQ0VGRo4cObJVq1a9evXatWsXhoZT6Orq/vzzz8uWLbt+/bpSuq78nTt3sCD9+/fH07Ro0WL16tXV1dVsh5qaGryRjo4OnsbKyio2Nlb1Fjm+JyQkxM7O7pNPPunWrdvhw4fF99MAZRISEkgLP/30U0wSHk78jhC7lLP+N4o1UUN6mmcPY8D8uHTp0qhRo5gcpO+sRoyNslvS5KgLyfuJDkFIFjJp0iTiGUeybt26CxcunD9/PjAwcOvWrcgQ7iQ6OhqxUH2qX1RkhsTFxfn4+IwfP56KRDtisXTp0vDwcKQEsSDgRXgLxHklEnWYHiTZM2fOJA9mpSkqKlJ2SLQTBpTYFzlPTEzMhAkTOnbs2LNnz8WLF2MCqqqqnv6GDadgzUJtSKLefffd9957z9nZ+cSJE3gOc3PzcePGRUREkI+JwjQGj1VYWMhe8rcXX3zxyy+/RPQwQBgUDA05PG3DG73++utdu3YNDg7Oz8+nCkdAzVA59I2zYFw2b9589epVjA57magnT55E/Tj7119/7eHhwdUJ6Xug4inWRA3paZ49DDmTj2zbxsYG18lEYczkOtTkYYhxJ0gMdnbu3LmdO3cmv7G1tUV9vv3228/raNmypYODw6ZNm8i6CGPCtaLuu4DF+1ZUQa0owFIUFRWVl5eHQDT891JItBqmCjOQ6YSnOXToEBNS2SHRZhhW5AJbwEq/cOFCQ0NDPT29KVOmnD17try8HOWhACilHx+OgCjNnz+/Q4cOH330Ubt27SZPnjxr1iykjFPgLVTOiRfiab8lS5aQtH/zzTdt2rTBAx05cgQpw9lgYrBB5HXonq6uLq0NDQ29ceMGudzp06c5pr6+/vfff88pZsyYcfTo0ezsbA6I4q1Zs8bAwODHH39k17Bhw4KCgjIzMx+2eirWRA3paZ49TA6856JFi5hzXl5e4o2np5ltEm2BUcbRojvE9vjx4//5z3++9dZbJCukMn+s46WXXnr77beRAG9v7ytXriAiBw8eHDlyZKdOnX766SdTU1NPT0/Cnviv/y6VnDySR4clhylkZWVlaWl58eLF27dvKzsk2ozQASAXYqXfunUrcsHaP3r06FOnTonvGhZyoVR4TKiI5ly+fBlj4eLiQjLm5uZG9hUfH48trn9kJlhRUREljx8/vnv3bh8fnx07dgQGBp4/fz45ORlPExkZeeDAgZ07d7KLv7gWXJHwNLjtw4cP79q1S9TCc0dEROTk5LA3JibmxIkToha7MDTsysrKkp6m8UFExBuTWNS9e/cy/E8z1STaBQNNzOfl5aE1n3zyyf+o8Yc//OHll1/u0qXLiBEjhg4divHF4nTv3p30hZAmhlEW5VgSyePDmscCw4waMGBAYmIiS52yQ9IkUCkMfqJ3796dO3fu168fHoItd57uF1qoi/hwHHxMdHQ0Sdf169eZTmxXStTBv6xxFRUVZfUoLS3lL+6npqbmV7sEHIeDq+8qLy/HtbCLFxxEHEcgdolbUMq566FYEzWkp3n2FBcXM9v69Onj7OwcFRXFGEtD03xgrCsrK0NDQ7t27fraa68pRkaN119//bPPPmvRooW5ufm8efNIZYSbkfZX8pSQsq9bt47pN2XKFCYVS4KyQ9KEEG8AHTlyZPz48eRF2JoNGzZcvnz5V/dUHhcqAkeoj/rRRDFQ/q+3RaBs/QVlax3Kpl9QttZDfbvY8isUa6KG9DTPGAYgIyNj0aJF1tbW8+fPz8zMJE962KhImh6MdW5u7qpVq7744os//vGPioVR4w9/+MM777xjaWm5Z8+etLQ0+QaB5FmB5syZMwdPs3r1apY9Fj9lh6RpwciWlZWFhYVNnjzZyMiIFYd1JyYmhiz6Yfc2mhKKNVFDeppnCdMIBxMZGTl69GhmmI+PT2lpqdSUZgVzAI8yceLEDz74AOOiWBg1sDuffvopmXRxcbG4Y6zUl0ieDpL1UaNGGRgY7N+/v7ruB8iUHZKmBSOLd8HWREdHz5o1y9zc3MLCgkQ6IiKiqKioya87ijVRQ3qaZ4kwzjt37rS1tR00aNCZM2du3bolb9I0Kxhu8c1R77zzzgsvvKBYGDWwO3iaGTNm1NbWPvDurkTyuDCLkCDxnWYmJibnz5+XN4mbMIwsCGeTlJS0ceNGJycnfX39ESNGBAYGFhQUiNEXKHWaEIo1UUN6mmcG84a5de3aNZyysbHxvHnzMjIy7smv2mtmMA2uXr06derUjz766Lfv03z77bdLliy5efNmk1QcScPD8oZF3rdvn7W19YABA8R3nSn7JE0XBIRxz8zMxMqQTWFr+vfvv23btrS0NLZjc6WneQDKYSQPh3lz+/bt6OjoUaNGkST5+vqWya/aa34w4nl5eWvXrv3yyy9/43maP//5z7q6un5+fswZ6WkkzwRyqhs3bmzYsMHKysrd3T05OZktyj5J0wUBQXbu3LlTWFh44sSJ8ePHd+3albx65cqVCQkJNTU1TfJ9KMWaqCE9zTNDvPGEU+7bt++gQYPCwsJkCt6sEDeBSYySkpIWL178xRdfvPjii4qF+W9eeOGFl19+2dDQ0N/fv6qqimRael/J03P37t3U1NS5c+fa2NisWbMmJydHzqtmgrA1KAlr0IULF9Af8mqYNm1aaGgoG5GmJnbDRrEmakhP88xg0mRmZi5YsMDCwgJZEV+1p+yTNF2QCSEo5ElMgODg4FmzZqEm//jHP957771XXnlFMTK/8Ic//IGNb7755k8//YT33b17N7Vu377NEZqS4kgaHmZRZGTkiBEj7OzsDh06xEomZ1TzoU6H7gvRrVu30tPTt27d6uTk1KVLF0QGUVI9XqOU1n4Ua6KG9DTPBuYKMykqKmrIkCGWlpY7duwoLS2VSVKTh3En+6mpqbl27drJkycXLVrk6OhoYGDQs2fPwYMHjxw5snv37u+++67qTag///nPn376qaGhIXJjZmbWsWNH3I+Xlxe5VGFhISb4vizJdUjyRNy8efPYsWNMLUCLauVPsjRXsC/5+fl+fn79+vUTtmbPnj1ZWVlN6ZawYk3UkJ7m2cBEKSkpIee2trZmMTt37px846nJw/hiZHNyclhIFixYQHIs3sYePXr0li1b4uPjMzIyAgICXF1dMTGdOnXq3LkzDsbNzS0wMPDixYtBQUGTJk3CAHXo0MHe3n79+vWxsbHk1vL2nuTJqKioYBmzsbEZPnx4UlISk1PZIWlmIE3ICLbm6NGjY8eORZdQmA0bNly9erXJfBRXsSZqSE/zbCBZZ7pMnz69R48eCxcuZDLJp/OaJMgB/pXhvn37dnFx8YULF5YtW6ajo/P555//+OOPuJnjx4/Xv+PCi5qaGnzP5cuXcTkFBQWYXTYKWIREYv3dd9/985//HDhwIOmU+KFa5g8n4gjKiSWS3+P69etLliwhrZo9e3Z2djbJurJD0vxAOhCQO3fuJCYmuru7//TTT126dFm6dClmF3lpAndrFGuihvQ0zwZWoOjo6AEDBhgZGe3evVs8HqHskzQJhEawTpSVlWVmZoaHh3t7ezs6OqIUhoaGI0aM8PHxQT6wKZgV1ejzAgOEsqAjuBmq8y8bBUyb8vLyuLi4zZs342z09PRMTEymTJmCMcLZiENJWyN5RDDNkydPtrOzW79+fUlJCZNH2SFplgjJQnkuXry4aNEic3NzfX39efPmnTt3jumB+Gi1tijWRA3paZ4BzIxbdb8bx6Tp27cvqx0zSdknaRIwxEgAo5yfn3/y5EnyYMa6bdu2urq6gwcP3rVr15UrV0pLS59gFeHIGJ3CwkKEZu7cuXji9u3bsywtW7YsMjJSvBWl1dIjaTDOnDnj7OxsY2MTEBDASoZ7ljNHwhwgm0pNTd24caOxsXHnzp1HjRoVEhJSWVmp1TNEsSZqSE/zDGBmsJ6RXvfo0WPOnDkZGRnS0zQBiHZgKO/cucP4JiYmBgcHz5gxw8HBgYG2sLAgJ96zZ09cXNxT/tA/tZhC6E5KSsr+/fs5hZWVlZmZGW4JGcLZ3LhxAzslBOjJTiFp2jD3mB4HDhxg5jg5OYWFhYksXM4WCTANbt++ff36dRLvQYMGGRgY4H137tzJUlVTU/PEwtW4KNZEDelpnhZmA2teenq6paUlubu/vz/+V3oa7eX+OlAHiwROpby8XFiNWbNmOTo6du/enYF2d3dnoJOSkkSuo9R8OjjjvbonbOLj47ds2UIuZWpqirPhhY+Pz+XLl8WXTGipAEmeK0xCXO/27duRoGHDhsXGxio7JJI6hLyQmx05cmTcuHGGhoY2NjZLly6Njo4WX8p3X/K0SlgUa6KG9DRPC/NATJSuXbu6urpGRUWxEGrX5JDUh7Ejwon/oqKiK1euHDp0iMh3cXHBXmAy3NzcWDlYM/A6FHuGDoPjiGwbi5ybm3v69Only5eTc/fo0cPOzm727NmHDx9OS0vjvNIxS36FWK6WLVuG4fbw8CDFUnZIJHUIeSEpIjU6d+7czJkze/bsaWxsjLCwZhUXFzOFtEtYFGuihvQ0T4WYKBkZGSTxXbp08fb2zsnJYVlSdku0BMZRwGhiKYjw5OTkvXv3zpgxY8CAAdbW1g4ODlOmTNm6deulS5dKSkoo8zxGWWlE3bM7JE/Z2dl4ZUTHysoKAXJ2dl60aNGxY8fy8/O1NLWSPA+YA7dv387MzBQPCK9evZoZouyTSOoQWgFIHLMlPj5+yZIltra2pEzu7u5Hjx7Ny8tD1thLGaWOZqNYEzWkp3kqGP67d++ePXvWxMSkV69e5PTya2m0ERHqDCVJTFJS0u7duydOnGhhYdG1a1cbG5u5c+cS8ykpKeXl5eK5GaXac0O0B2dTW1t79epVnA2m2dTUVF9fv2/fvitXrmTKFRQU3Lp1qwEaI9FwmC3Mk7i4OFyvk5MTXryqqkrZJ5E8iHv37l2/fj0gIGD48OGdO3ceNGjQjh07SM5Zv7TF1ijWRA3paZ4Kxr60tHTbtm2tWrUaOnRoTEyMeDRP2S3ReIR7IHFhHHEzBDluhmQXN9O7d2/cDFsuX75cUlKiekpXqfn8UbWNs8fGxvr4+JBR4bFwz6NHj966dSsNq6ioEA/ZKHUkzQ/mCSbmzJkz1tbW2JoTJ04wZ5R9EsmDYM7cuXMnLy+PbG3cuHHGxsbI3dq1axMTE8U9YKWcBqNYEzWkp3lyxJKTnp7OKvjNN98wIfLz87XF5EqAwcIQYFZSUlJIU8aPHy9+r8DBwWHmzJmBgYFEeHFxsbgd0ljDynmRGPInZteFCxc2bdrUr18/fX19Q0PDKVOmsIAVFhaKu0dy4jVPGHoc+cGDBy0sLFifmCTMB2WfRPIQkAvUj3wpPDx8+vTp6ImJicnSpUuvXLmCrdF8MVGsiRrS0zw5jDpWNzQ01MjIqEOHDufOnWPxk+uKhsMACe7du1deXn7p0qXNmzePGDGie/fuBgYGLi4uq1atOnbsWGpqallZGWuDUrpRh1U0QDib3NxcptyyZcv69+/fq1cvGxsbDw8PGsyqpl1vh0ueFaxMWVlZq1evtra29vT0xKCzRdknkTwctIKpUlVVFR0dzfyxt7dHUtzc3NATNrKrTng0VE8Ua6KG9DRPDoONySVvJrN3dnbOzMxs4PcmJI8Lo8OqzzDV1tZmZGTs3Llz7Nixenp6WFJbW9v58+cTzAUFBaQpuBkNvAFL4xEamnft2jWaSnaFFWvXrp24b6y9H8uUPA3M1YSEhClTpjg4OCBHeXl5Gjh1JRqL0MOrV69u374dW6OjozNkyJATJ06wuqE2GpsmKdZEDelpnhwGOzExccyYMV26dGFFIa2XC4nGwtAIQ1BRUSG+PW/u3LkkJe3bt+evu7v74cOHSXarq6tVYayZoyku5N69ezdv3oyPj9+4caOLi0unTp3atm07bty4ffv2ie/REleh1JE0aW7fvn3hwoUBAwb069fvwIED8vuxJI8FkoKtEY/X7Nq1q3///qxoAwcO3Lt3b25urrj7K6gTRU1RRcWaqCE9zRPC0JIesRCK3+iJjIxk7JV9Eo2BYSIURcSWlpampaXhZnAwPXr0aN26dffu3SdOnMgg5uTk3Lp1S5OTkl9xX1p++YFMcnRvb++ePXu2adOmc+fOCxYsOHPmTHZ2tsrZaMUVSZ4MBpeBJqtmAgwdOhQhYtDliEseCyYMQoGekJmHhISQqCOPrGukTOnp6eSBiGdxcTF7mWwsfJqgKoo1UUN6mieEQWWMV65cydiPHz+eJYQtyj6JZkDUoe+1tbWFhYXx8fG7d+9mpAwNDTt27GhjYzN79uywsDDV2k/hRo/Sx0W0GbtWVFQUFRU1f/58MzMzXV1dBwcHLy8vrg6vVlVVhVSJkko1SRMC2WGlYW4zq6dOnZqcnCwHWvJkMHOYTjdv3oyNjZ02bRrp+s8//+zh4bFz587t27evW7fOx8fn6NGj4rftGt3ZKNZEDelpngQGklWQoR03bhyZ8bZt28rLy6WUaAgiMv/zn//cvn1bfBfwvn373N3dTU1NWe/Nzc1xM8eOHcvIyFCt90pN7YT2i3fEyagOHz48duxYUvbu3buTtW/dujU6OppOoCsoo1SQNCEQInz5ihUrEKKlS5dev35dCpHkKcHWxMTEYGu++OKLf/zjHz/88MN333339ddf//jjj+SEbm5uJ06cyM/Px9Y04mRTrIka0tM8CcLMHjp0yNramjUyMjJSfuKp0aH/BYwOS/iNGzfINvz8/CZPnty7d2+WeTs7u+nTpwcEBKSlpeFmWONFngHKIbQTcQlcC/6ssrIyKiqKjGrYsGEmJibip6n27t2bkpIiLlkUBqWyRMthXUlMTGT50dfX9/X1LS4uloMreUoQCsyxl5cXnuaPf/zj//zCCy+88Je//IWNAwYM2L9/PxrbiJmSYk3UkJ7mSRC50ZIlS1gpWTOysrLEmxfKbkmDQ+er7s2QQJw+fXrt2rWjR4+2srKysbEZMmTI4sWLjxw5kpqa2rSfoKQf6IGCggJ8Nj3AhdMDtra2s2bNCgoK4vKrq6tVZk6pI9FmyKZwsQw0FvbkyZO1tbXKDonkSSH/OXr0KLrx1ltv4WMUR/MLbPnwww+dnZ1DQ0NrGu+bbBRroob0NE/CnTt3zp8/P3z4cHNz8x07dpSUlIgMWNktaXBUa3l0dDTZ6pgxYywtLXGcffr08fT0PHToUP1PAzXtkRLejqUuMzOTC58zZ46dnZ2ZmRkatHTpUvGQzc26b0BXKki0GUwMSwvLD6PM5GeGKzskkifl+vXrs2fP/uqrr/70pz8pRua/efHFF3/44Yfly5fn5uY2lpIo1kQN6WkeG1ZEbOzOnTstLCwGDBhw8eJFZEUamkaBbmf9ZoXGzcTExPj4+EyaNMne3p6ctW/fvnPnzg0ODk5OTi4rKxOfSKR8cxgprpGL5ZJx25cvX/b3958wYQImD2czcuTIDRs2MGmLf/kl3mbSJ00SBq68vDwgIMDIyMjV1ZWpLq2q5OlBS62srN555x31mzQq/va3v5HVx8XFNVY+r1gTNaSneWxQDTLdBQsW9OzZc8aMGaymTeA5U62DDhd3I8T7LOvXrx86dCgjoqOjQ87q7e196tSprKws7fqE9rOFS+bCmZzV1dVXrlzBhaNBurq6enp6I0aM2LVrV1paWmVlpZy92gvjm5eXR7rcq1ev+fPnZ2dny6GUPD0hISE//fTTK6+8oviXB8FeU1NTSkpPo90weKyRERERrKA42W3btolHL5XdkucM/Q9I+c263z9iIJYtWzZw4EDjOsaMGbNhw4aTJ09mZGSQv4oP+1Beqdwsqd9dmD/6Z9iwYSyBlpaWU6dO3b9/f3p6em1treioZt5XWgejlpycPH78eHNzc19f35KSEjmCkidGKAAcP378X//615///GfFvzyIl19+mRzy2LFj0tNoMYwcywMrpb+/v5mZGUvp2bNnZZrbYIj+x1PW1NRcvnx53bp1zs7OHTp06Nixo4uLy6ZNm1izc3NzcZnyXZVfQT/Qbzgb+ufMmTMYQWtr6/bt27MWzps378KFCxUVFeILJ5QKEm2A5YSxEw/TnD59Wr4JLnkahLoinniaFi1a4FoU//IgXn31VSZeeHi49DRaDCOH7pPvzp8/n0x3+vTpaWlpchl4rtDnKgi2srKy6Oho3MygQYP09fV1dHRwMytWrAgNDc3JyVE9BaxUltRD9CH9U11dnZ6evn///kmTJhkbG3fp0oXOxBHGxcXRgaobNgKlskTzYHSIiJMnT+JNBwwYkJiYKPMrySNSF9z/D2RBfHVnRETEli1bBg8e/NFHH7344ouKf1HjhRdeePvtt93c3FJSUqSn0WIYOUSfxIghd3Jy2rFjR3FxsbJP8nygz0X2UFlZSbwtXrzY0dGxY8eOenp6rq6ua9euZThU3ylHyUaJLu1CSBjOJikpaefOnaNGjdLV1cXZDB06dPfu3dnZ2bdu3RKdCUodiYYh4oJB3LVr19dffz1u3DgGji1y/ksehbrgVn40hkQxNjaW2Pfw8LCzs+vQoUPLli1btGjx3nvv1f9ymvq89NJLKAYrYGlpaWNNOcWaqCE9zWPA4DGEJLgWFhZjx45lib1586ayT/JMEZItQg7LcunSJbR72LBhbdu2/emnn6ytrb29vS9evCi+bKZRgoqTPpPzchBxpfgM/j6TYz4KnIjT0YExMTHz5s3r1atXmzZtzMzMli1bFh4enpeXx9ymSQ3WHsljIYYvPz9/+fLl33///cKFCwkTOViS34YZgtoQ1+QtrGUZGRlnzpzZtm2bm5ubkZFRq1at2rdvb2lpOWHCBGZU7969P/nkkz//+c/1P/3Ea7Zgo2fMmBEfH48+K4ducBRroob0NI8Ks4GpkJWVtWLFCmNj4/nz56elpbFF2S15dhB19+p+nVH8ThNuZvz48fr6+h3rfqdp7ty5p0+fZpe4ndDwOi5mAsH89L94QnUOUlVVVVBQkJmZScLUYG8fcBbhpW7fvn3t2rWgoKBJkyZ169aNTh48ePDmzZvxkaKTKabUkWgMYviSkpLc3d1Zh8iYKyoqGmbmSLQR5oawMojM9evXo6Oj9+7di3FxcXHRrcPU1HTEiBHr168/d+5cdnY2inTixIlBgwb98MMPb7/99qt1vPbaa++99x5Z5bhx4xDhxv3+UsWaqCE9zaPCnCBzxdUOHTrUwcFh586dJEZS7p8h9LAIPNwMUXf27NktW7aMHDmyU6dO7dq1I3vw9va+fPmyeGhGFAalckPBGTk7Kc7Vq1dzcnIwBE/WBmoxebgW/ERoaChSgr6cP38ef9Mwk+p+3/0CZ8Ra5ebmBgYGDhs2rEuXLj///POQIUN8fX3p8PLy8qd3b5JnDsPBuoLLx4ny4omnoqRJcj+w6yBvIQFDWNArrMy+ffvEPZjWrVvjTrp3704Og/6wS3yPF+VFsPMac8Ou/v37U0xPT69Xr14U3rBhA+qHPRLHV87X4CjWRA3paR4Vhpkhx8oYGRmNGjUKM4vFacQRbWLQvffqfq6INR6BXrlyJcFjYWFhZWU1evRo/lX9hjYllTqNASPOAn/hwoXVq1fv3r2bKfEEc4AqXEV1dXVKSsr27dv79OmDvhgYGJA5ccBGuUCahIQVFxfHxsZu3LjR1dXVzMyM9XLy5Mn79+9PTEzExlGgcTtfooLxYu3Bg2JA7e3tGSD+VfZJmj1MD+SUFaqiogLZRK8OHDiAio4YMYLk0MTExNramuxl0aJFQUFB8fHx+fn5IldU6tdBsGOU8/Lyrly5gvweO3YMZSbJIfnRhNu3ijVRQ3qaR4XxzszM9PLy0tXVXbBgQUZGBiLyBOuZ5IFgFG7cuKFyMz3rGDJkyKpVqyIjI8kwVN+holRoJIhkMh4fHx+WfMwWDuwJ1hKugunE9UZFRS1durRt27ZvvPHGDz/84Ovri3VoLE8DnBrjgoph2ZnqTk5OPXr0sLOzmzdv3tGjRxFHeTNAQ2AUWFfImFu2bDlu3LisrCw5LhIV4l5yQkLC8ePHmSQoFVamV69epqamzs7Os2bNIjm/ePHi9evXSSMpfD/461Dq1yG2oAkUwB5hephyWCUNWfgUa6KG9DSPCoMaERHB5GAx8/f3l19v9ZSoooWgSklJOXny5OrVq11dXW3qGDVq1Nq1a8V3AdPzIooavcNpAEt+XFwc0+Czzz7T19cnd6F5XMhjtY3CXBHeiPQoODiYtOntt9/G04jPETSKp1Eh2oZ+MSjkdrgZR0dHBHHQoEHLli3DdKqytMe9askzhDFiIObMmdOuXbs1a9bgj+VYNFsYeoIRLSUwi4uLk5KSQkJCNm7cOGnSpH79+tna2jo4OAwcOHDatGmbN28ODQ2lgPisqAjh3505okx9lB2NimJN1JCe5pFgFMvKyvbs2UPOOnjwYNJrJoSyT/JEEE7V1dVpaWmHDh2aPXs2scfCaW9vP3bs2HXr1p09e5b1XrgZpYIGwDQoLy/ftm2brq7uq6+++uWXX86fP7+wsFBYLqXQI0Dh+46gjvj4eBcXlw8++EBDPI2AFgq7mZycvHv3bnd3d4ZG9RQh5p52NtjjzBJ16Pzo6OihQ4fq6ekdPXqUaSnHonnCuKM/TAC0lJQDdZo+fTpySu6Nojo5OY0fP56YPX78OFIjrAzlERkqavWcUayJGtLTPBJMgqysLC8vL1LqmTNnijeelH2SR0OEENB1mJXMzMwTJ07Qpf379+/Ro4e5ufno0aO3b99+/vx5urqm3pe/KfUbG9Fy8VX0X3zxxcsvv/zWW2/17t07Njb2id+RoRY5k6ur64cffqhRngZoGy25c+eOeI9sy5Ytw4YNE084ubm57d+/PyUlRXzwgZICpabk+cO4iDt8RkZGCQkJBJTs/2YCA03QAXJUW1ubm5sbFxcXGBi4aNEiItTW1hYtJU6HDBni7e194MAB8R5TVVXV3bt3NU1UnwbFmqghPc3vwwy4deuW+Ko9a2trX1/f4uJippSyW/Jo0GPisTWCkER/6dKlJBMGBgbdu3cn+8fN0MMsn0QpxTSwe2kSohAQEEAC9I9//OPdd9996aWX2rVrR8uf+MFephYmCSXSQE8joIXi3fS8vLzw8HA8qIODQ7du3cRDNiEhIfn5+USH0EqljuT5Q59v3LiR6YerZvrJ/m8+oA+MPkJx9erVM2fOiMdlWJgQUkNDQ0R1wYIF/v7+kZGRJIdkHdhfoahNbIYo1kQN6Wl+B+YBs6GiomLPnj2dO3cePnz4pUuX5JOSjwJdpEKkFKQLJ0+eZC0kmejYsSNBOH78eDqWdZ0QJfY0WZrRhZKSkmnTprGiW1lZde3a9Q9/+MPHH388cODA9PR0Fn6l3MPh0sR73uXl5UV1MK8uX76sfp+mrs/uI/SLYtjowsJCqlBX5SFAOfRzhhMJZ5OdnX327Nlly5aZmJi0b9/e1NQUAT1//jwNY/ianm5qLKxVs2bN+vHHHydOnEjPy25vktyP8F8guMipqqqqyAnFj9GiGz169GBV6tSpE1bG09Nz3759MTExOTk5wso0baerWBM1pKf5HZgTzAykfPny5W3atFm4cCFTii3KbsnDEXFIX+FmCDPczJw5c1gF9fX1WRHd3d13796NQSwoKBBv8Wp4+FVXV0dERPTt23fw4MGkyGPHjn355ZfffPNNHR2d0NBQ9irlHoJwJ0wk8cWdi+vw8/MLCAgYMGDAr56nEf1Gt+BjTp8+vX37dmzE/Pnzka1169axJS8vT+VslBM8Z8RooqrIZUZGRmBg4NSpU3v16tWlSxdnZ2cUNi4uDsHF+mj4ODYB6GFsNEsatnLNmjW4bWWHpGkhdICgQ0JJG8h/0ExcrI2NjYGBAaFnbm4+YcKELVu2oCppaWmUoaTqPSblKE0UxZqoIT3N78DMwPBGR0czk1iM/f395fd1PiL0EqFFck8e7+HhYWRk1LJly44dO7q5udGNV65cKS4uFm5GqaDZYC/wE5aWlkuWLElKSvL19f3+++/feOONL7/8knUFk6GUewhcaXJy8ooVK0aOHDlp0iQvL6/Zs2e7uLhg8uiTt95661eehvKIFL6HDGz48OGYaQyN+JQ7irZ27VpWtUZJ0Dkjokk74+PjaTCX0LZtWy5hxIgRR48eLSkpeZRbVpKngekRHh5uZWXVvXv3gwcPaksESR4XBpoYJ4s+deoUKU2fPn06d+78zTffEHEkEojJsWPHEFKkCZkl7ijffNYmxZqoIT3N78AsITHdtWuXmZlZ//79MTdMMmWfRA26C4Wli+i07OzsEydOsCr37du3Q4cO4p27nTt3shaKhJ7CoPlBSAtv3boVFRU1dOjQIUOGsHLTfnImVvH3338fW8O6fuHCBVZ6LkepUw82kjzFxcXhSxwdHSdPnhwcHIwrunTp0saNG01MTD788MNXXnmlvqch88bQUL5Nmzb29vbbt2/ndAkJCXv37h00aNBHH33UrVs3kjOM1APP+LzhpIwyI4i/j4yMXLRokbW1tY6ODmYL5UVnEVkuWdyz0fzx1S7oTzofRSJNt7W1jY2NbZQ5IHm2iEgBBheDUlZWlpWVdfr0afGRbAYaCSXEUIM5c+bs3r0bwSkqKhK3ZJgASuXmFGuKNVFDeprfgRnD2jxv3rxOnToxmXJycqSCqKPEU92XV5aXl6emph4+fJilDhdIKBoYGAwbNmz9+vXiUSSt60AajHxs27bN2NgYn5GSksJlYj58fX0xIuInav38/IqLi5ktSp16oDsZGRmrV6/u1asXlujkyZNYIrGLtd/b2/uzzz57+eWX63sa+vDAgQOU/+CDD2bOnJmZmclGKCgooBlffvklVUaOHIlPavSbInQFQXHo0KEpU6YYGhp27NiRbHLTpk1YQK4Od0uzmRhKaclTI6KMadO6dWvCCl8ru1erua+bdVZGpILEeEREBK5lwYIFJEvdu3cnG0R5iPdVq1aFhYUhEUrN5o1iTdSQnuZ3QD7Cw8NJjllg9u/fj32WCvIrREBiVliJ09PTjxw5smTJkgEDBqh+F23z5s2sviUlJQ38CMizAq1JSEiYMWOGpaXlnj17xKfecCos26RNr7/++r/+9a+pU6deuXKF2aLU+QUuljlz8OBBJycn1nuWItIvlRGhfEhICB0lvkdY5Wny8/PpNLbjXZYuXSruxwA9HBwczHE+/fTT3r17MzPpdnGoxoJWCS1OSkraunWrq6srkQITJ07cuXMnfcIVaaOR1ViIoJqamunTp7dt2xa/W1FRoeyQaBtCOVFFwoeQRyTJDTZs2DB+/HhbW9tu3bqhn2RB8+fPDwwMJFFEQsV7TEr95o1iTdSQnua3YM4xh9avX29gYDBw4MCrV6+izlq3JD8/6ArWKlb3qqoqOufkyZOs2ay1Ojo6pOy4GT8/P0JR9eioQKmsJdBgVuWgoCBWa3d390uXLqFBbESMcnJyMByffPLJ22+/jd05cOAAV1r/AkUxfN6cOXNatmzZo0cPtEm4FlGAFwhZ//7933///fqeBtsUEBBAT+rr69OHaBkbORR7jx49itjhaaytrfFDzE9xqMaCaxTgz7BcsbGx69ats7OzYw707NnTw8Pj2LFjGRkZqDZzgKsQhZXKkseHfmbiDR8+XE9Pj67G3yg7JNqAmP/EMuNI8BLpJAOhoaHbt28nL0JGOnToQICTAk2bNk08dygel6GKqAvKsZo3ijVRQ3qah8LUQYJzc3NxzaREc+fO1dLbDM8DOoGuwOGx3CYkJLCcL1iwoG/fvixjrLWTJk1iJU5OTmavePdBqaaFID0pKSmkSi4uLlu3br1+/XptbS0XjspwdQcPHmTxfvPNN1u0aOHp6Xnt2jWxbIu6vMDwhYWFoVCfffYZK314eHh1dXX9AvTe0KFDf/VZbjoNj7h//362cHbWLdwSK1lkZOTy5ctbt25NeQ3xNCpUU+LGjRtcJm4Pr2ZkZMS103vBwcGZmZk4G/pTq+dDo8OIR0VF4XcdHByOHDmCKCk7JJoNAcLMRxAIZ2IkMTGRJHDTpk2TJ09mKIkUc3NzMufp06cT9REREUgNSQIBJZIB5SiSX1CsiRrS0zwUodGnTp3CO5Mu79y5ky2g7G6u0AMEGCtTRUVFfHz8nj17Zs+ezbpFQBKZEyZM8PHxiYmJKSgoEG5GqzuNlmMmkB6WZ9iyZcv58+djY2Pj4uL4e/HixV27duEt3n777Q8++GDAgAHnzp1Ds1QCxAuWHF9fX3zPxx9/zBHEbR6xFzg+WZr6d+6xHS0jh8vLyysqKsINYIw4jre396hRo7799tv3339f0zwN3B/puqjBt+HJWHFnzZpla2uLXnPtq1atOnPmTP2JoVSTPA5MyMDAQLp07NixrItEorJDoqmIoGCkiAucChqCSBIazs7OJiYmFhYWZIMTJ05ct27d8ePHSQXFI/ZUqYsnBeVYkl9QrIka0tM8FKYRsxAhbt++fb9+/VjAlB3NGPqE1QhVTU1NPXjwICkFK2vPnj3JGqdNm8aSHBkZKb5YtgksWrSfDCk7O3vDhg2YWkdHx/nz56M7G39h/fr1CxcuRI/wK6+//rquri7Gl9QKMRJHoBPwHEuXLv36668/+ugjFxeXy5cv0zmqnuHFw75HmF2s/SggzoCTenl5rVixgpPOmzevXbt2HE0DPY0K0XV0BR4OI8jqa2VlZWpqOmbMmG3btiUkJNR/K0qpI3k0mCGrV6/W09NjJrD40Y3KDokmwcRWQZ7DSJEI7du3b/HixSNHjiRPNjMzs7e3Hz58OKGNSRW/YECiyIBSRTmK5OEo1kQN6WkeCobmxo0brq6uLCGLFi3itbKj+UGMsfwQmSUlJazKLL3u7u7k37gZJyenGTNmEJOkjKituEtRF8haH5ZcCNnSmTNnJkyYwJKM9GBZAgICECYBr9myfPlyQ0PDd95557PPPsPk4fbwIuLyxRHmzp376aefvv/++3369ImKimKLqnN48UBPAxjHmJiYJUuWjBo1ysPDw8/Pj7p0clBQEKfTnOdpHsb9GVBnywgc9Hr79u1IOW02NzcXb01euXKFaxTJqFJH8pvQUXRXVlbW5MmTu3fvjtWuqalhqii7JZpB3cT/f+/DXrhwAaHAyhDmTH4TExM0k1ggHWJ7dHQ0VoZAUFl8gXIsycNRrIka0tM8GGYVenH27FlxbzA4OJilSNnXbBDRBdi7srIyFqG9e/dOmzbNxsaGZZVumTJlyv79+1lo2UsZSio1mwSoTEFBgY+Pj7Oz86xZs1iYs7Ozc/8b9AiTh6v75ptv/vrXvzo4OOAzUCix0vCXaTN//vzPP//87bffRtFOnDhR/zsbefFAT4NTIatbsGCBgYEBrhofw6mRyOrq6rCwsF69ev3973/XcE8j4AKFuNOT4eHhWDQEnfUYjzh79mx6I6/uC5GFmit1JA+BLsIjXrp0aeDAgUQfwVj/np+kEWEUBMxklJAYT0tLY8Jj5ceNG0eoIpiErb29PX4USYmIiLh69SrFmp5sNhiKNVFDepoHwCRDiAsLC1etWtWhQwfSdCbo3bt3ld3NBvqBkCsvL2fdJaUgvWYpIjhZlljj2ZKQkFBcXIywNsn7pVxXbGzsnDlzBg0adOjQoZKSEuYAV1oftuBg9u3b17NnzzfffJPZsmbNGowO84cjCHfCLPrpp5/eeOONzp07+/n5FRUVsV2cgk57oKfhCOvWraOrf/zxx/Xr12OexA0wbfQ0NBuYSHQUcXT06FHx+Q6cTb9+/dauXYu+E2vNML4eFzoTi4wRpPewNadOnVLdEZQ0LoyCmOFELqYTQfDw8Ojbt6+pqWmPHj1sbW3Hjh27YcOG0NBQ4h1/T8LMhEcl5PA9MYo1UUN6mgfAPGO5SkxMRHNbtWq1adMmEk2xSjV5uHYVKCarKYuQm5tbx44dv//+e1bZuXPnkn9kZ2cTwCLJECj1mxBlZWW7du3C0EyfPj0vLw8NUr9MtjBVsD5o1ueff/7xxx8PHjw4KipKFGYtZ+YgcOjaa6+99sUXX8yePZt1vX6/Mc1cXV3F7z35+vrinJhpFy5cYNH67LPPMEnHjh1T3cmgz1nJ8E/C05w8eVK8kwVKgzQP0TzgEugr1DwzMxOPOGbMmLZt22LaevfujdXLyckRUSYKK5Ul9aBbyOzpq65du5LuJyUl0Z+yrxqFukmqQLAzq5FK8g1PT08cDBMbtSR4WUFIcs6dO3f16lXSFRSVGS5iGZRjSZ4IxZqoIT3NA2C2kRAHBgaiHVZWVqwiYhYqu5sodVF2/wYVgVdeXk7CwWo6evRofX39du3amZiYLFiwgByRBYmVlTBuwn3CdXF16enpU6dOtbCwWLduHcstW5Td/w3b8/PzKUMvvfrqq507d/bx8cGaiPWGv3FxcTieDz/88K233jIyMmIv67dQNw57/vx5BweHd99997vvvtu6dWthYSGO5+zZsygjG1HGgIAA8UQthdHNvXv36ujofPLJJyTr2M3i4mJsDXuV1mg2omOZPEywlJQUlmdnZ+cuXbro6uq6u7tjdJhdLA+i60CpJqmDDmG4Fy9eTKLl5eV148aNh81JyfODUaDbCV4yDaYx2d3p06dXr149dOhQZnL79u1RACcnJ29vb9SSjEV1V0bMauUokqdGsSZqSE/zAJh5eOpFixaRRHp4eDBrlR1NGq6aqLt582ZWVtbOnTvHjRtnaGjYokULAwMD1pvDhw+TamD1mkNkinUXx4CxwDoEBQWJ+wfK7v+G7WTPWA09Pb0//elPuA2MYEJCAhaEXcLxbNmyBb3D8Xz88cccc9euXUwqlC41NXXu3LnffPMNu7788sulS5dmZGRQMSIiok+fPu+9994777zDQOCKsDXXrl3jLIMHD/7ss8/YbmxsvHv3bvQ0KioKl6m0RkugZ7BurNBc6YoVK8zMzFq3bt2rV685c+awRXULUCktqYMOYS7hs9u2bbthwwYWVNlFDQwdjhSIGzNXrlxR6SSz94cffkABpk2bRlRGRkaSfohkQ47Rc0KxJmo8kqehPgPzNIhGaAtMRNZvfDcz1dfXV8MfWXgaxOiIKC0rKyN13r9///Tp083NzTt27GhkZDRjxow9e/bEx8cTwxRjhQalchOFyxQPRE+aNKlly5Z0wo4dO9iC1fiVs+E1vcF2XOCmTZtwLa+88spf//pXXV3djRs3CgvI2sz8wZTMnj0bi/zWW29henr27MnBMc0zZ87s169fmzZt3njjjY8++qh///6ci9wuNjaW8j/99NNf/vKX7777btCgQQsWLMD9TJw4UXwQD0/z9ddfOzs7kw5ia7TO0wBdR3/euXOH3sM1jho1qlu3bqwKxN3WrVvpgZJfvrCxbpLKheH+D4cRiSNGjGD+4G6ZXbJbniti4gGTUPiYGzduJCUlHTp0iPRj+PDh6GSHut+zExEaGBiYnJwsHLmct88bxZ2o8UiehoFBl0tLSxnRx4I8jIool9IKbYCLZVKSo5M72tnZnT17Vrva/4jUhdv9WGWACgsLxSe0WWgtLS07d+5sa2s7a9asgwcPiudIRHwqNZs6t27dioiIWLduXZ8+fVhlHRwcUKtTp05lZ2ezxNbvB15jaOiiw4cPz5kzx8bGhq7r1KlTr169xo8f7+/vn5CQwMJD75GxsUjPnz+/e/fuX3311aeffkpWx8FZnxBH/pJ58y8peEBAAKJZUFAQFhbGQSj28ccff/HFFxgmNBSrxKC4u7tjg/71r39ZW1uz/GdmZjJGSpu0EPqHbqSvyB9wNj3qGD16tPgmG9xkc5uBD4O5dOTIEablwIEDmR5MVNknzw/6llnH3KPb8/PzSXIOHDiwZMmSMWPGII/kLYS5i4vLvHnzVJ/9lHdlGhLFnajxSJ6GRT09PZ1cCtEhP+AFo4u2Mpa7d+9GVYEXYiNQgGIUJsXHt2rRfQ4xj3Nycjw9PRFWFiounC3K7qYCl8mYMi74zpiYGAaL5bZ3794kHBYWFpMnT2YEyZ4pQJRy+dB8YhX/gZHF4W3atAkPwV8fHx887rVr19Q9DesKs4W927dvp/D6OnixZcuWffv2xcXF4Y/FpCLJY4VmO907ePBgFu+FCxeePHmSACFSmGkEEb6nvLycJI/RQSJPnz49c+bMoUOHUh6LeeLECcYLu0Oa6OHhMXHiRD8/v4yMDPEEsdImLUT0D4sHlxwdHb18+XInJyccHo6NMMQvpqWlyXejgP5hklhZWWFqSULosWbeIc8DuhTQPQKWZC8lJYUwJGxnz549YMAAchI9PT08DdHHxvPnz4uvGKU8MdusdLLRUdyJGo/kaZBynEr//v3JRN3c3Fj/sKteXl4zZszo27cvuamOjg7jTTpL0gmINcXs6sDWlJaWastI006UgqWF68KG79q1q6Tu5wOV3doPF0jsEYRFRUWsuDjRqVOnOjo6mpqa9uvXj5WSSxY5hyo5Fij1mwFcNWausrKy4hd4jcCpLyH8S2HWWvbWLy9gGVa9XSVKEkd07NWrV+l5rExeXh5lyAJxRThIwoRxUZXnBbsyMzNZvShPAc6CdHKQ4uJilnmo/+6M0iatRVwyPXa97quTWULs7e0NDQ2dnZ1xOWfOnBFPIIn+Ueo0J7hqHC0mz8jIaNGiRThsukLZJ3kWiBlIDBKkxB1+BTFkLRs5cqT4SDbL39ixY5mNrIZJSUlEn3AzVFShHEvy/FHciRqP5GkQGvIDMnhGdP/+/RcuXIiPj0dneT1o0KAPPvjg448/HjZsGNktyyHJqPiAPk6WTGvt2rU4WWRXaYgGw4yknSTKQUFB+vr6Q4YM4Uq59qYxU7kKsWYQsZi2bdu2MZoEapcuXTBwONRTp06xuLKOqt4MVmpKnh1iFFRZHYh/Qb3P+ZftDAfwQuxVHQHUqzQBuC68Cx4OZzNp0iSWEzLjgQMHrlq1CoXBiwunyLUrFZoBYtBZaMePH29iYrJlyxb6oekNfaMgYpCMhVlXWFh48eJFf39/8nOWNuRRV1fXysoKqVyxYoW4ZUj2Qs4jRFI5hKQxUNyJGo/qaTZu3DhixIjQ0FBiiWWvtraWoY2KimKwhadBfUikGGxgb0FBQUhIiPh9HEIRnVIaosGohGPp0qXt2rVbvHgxwsrcVXZrJ1wU0P+kFAwKQ4Y9dXNzMzc3F+8HL1myhMVDxKoIVMorlSXPGTE6yj+SOugQJiFrTGlpKdmReMyLFJmcatSoUeIduuLi4iZzg+pR4DK53suXL7PQOjk5kXSRein7JE8K8wfFE1ZGpOje3t6jR4+2tbU1MzOjn3GQCxcu3Lt3L/OQ1Y0+ZxTuR2wdylEkjYTiTtR4VE9DZjBnzhzGXphTRlTE2MSJEz/88MNPPvlk6tSpCI04GbCIXr9+ndmwbdu2q1evolDKDg2Gi6KdMTExGDUdHZ09e/aUlZWJ69VSuCKxPOBEL1y4gDEdM2YMbsbY2Fi8VxgcHJyeni7eaZJRKtEcxNQVRjwiImL16tXDhg1jpcHZTJ8+fd++fagKeynTHOYt11hVVUWWyHJLbhkeHs5KrOyTPA70JDBtgNz72rVr9CqJN2mevb19jx49rKyshgwZMmvWLMz0+fPnSfZY11gBKa8cQqIZKO5EjUfyNJjZc+fOkc0jIkwIDsff3/Y0FCDvj4+PR49wQr+623F/Wj0IZXc9lB31eNhGgeq12A7i30eBwqSGAQEBOHRHR8czZ87cvHnzsY6gIdRd931wKnT+2bNnCdqRI0eyHlhbW7u6ui5evPjw4cMpKSm4GdW9GVDqSyQaABOSmUl2JNaekydPLlmypH///iZ1vwI4f/780NDQ3Nzc5nDDhqsjkHfu3GloaOjh4YGuctXKPsnvcV/a6hDTCTuYmZmJvPv4+MycOZPsjhmFlXF2dp40adKGDRuOHz+ekJCAmWbiSXnUWBR3osYjeRqGs6KioqTuW9vF4djy254GxOwpLy//lcmlLv8+kF/NmweWfNhGgXhNXbEdxKEeBQqnpqailaampl5eXunp6b+yYlqB6ARaznBcvHiREB04cGD37t0NDAwGDx68Zs0aLI7qcUuljkSi2TBXhbPBi0+bNg1rrqen169fv5UrV5I1oU6oTZ0ANM2Fh+u6fv26t7d3p06dli1bRvzK4H100EO6iwQ1Pz//0qVLe/funTt3Llkrqig+Xjd69OjVq1cfO3YsOTm5qKiIkmI6KfUlGoniTtR4JE9DfTEtVMPMi9/1NJQRtfhbvyIWJy8vj7rh4eFkWvyNjY3N+eXXXkQxAf8iZOyicEZGBsrFScV7n6fruHLlClNQJGp3797FdSUlJWHAxTFpD0u76tS/C0eg7vDhwy0tLZHO0rpfE1T2aQ9cBRkGbmbbtm3Eas+ePVF/8RQwboa8FjejSj6UOhKJZiPEhEgnRyKH3rVrF3ObNUlfX3/YsGEBAQEpKSlVVVW/EpCmAdfOdXGBs2fP7tKly6ZNm1TPAEh+G7oOrUPJMSsnTpxYu3atkESmjaGh4YABA8hgg4KCxDdCVVZWMsFwM1IbtQLFnajxSJ4GlMP8AkP+u55GHWphgVNTU1luqWhvb29kZGRqajp48OANGzYQtNXV1UQvxZhVWJwbN26wNjMRBw0aRHaCxSZZ2b17N/lZhw4d2rZtS8X9+/eLm4TkLgcPHhwzZgypzM8//+zk5CR+S1kcUGnBb8KcRivx7y4uLtgmjqktM1v0GNHLJaSlpfn5+RGudBH9gD9bvHgx/k/cm2na6aykacO8JZxv3bqF1JDPLF++nOndsmVLXV3dmTNnksmoMpymNMm5EMQQJZwwYQJqiYHD2ElP8zDoLjoHoWOe4GbQwwMHDkybNs3ExIQlo1WrVlhhVp+9e/eyfpHjkSqTBzKvmti0afIo1kSNhvM0zBgsC4vr2LFjLSwscCqRkZFnz55dunQp/7Zp06Z3796YEg7CdMT6oFne3t6Yns8///z9998nG/Px8Zk3bx5Ts0WLFmz829/+xnYK7Ny588yZMxS2trZu3br1l19++c4777z55psGBgbsYsoyX5VGPAQuh+alp6fPmDGD43OW/Px8JrqyW1OpC8D7Ko/k4d7i4+NXr15NJ9A/CH3fvn23bNkivomV8JZuRtIEEHOYaMXBM7HJPQh8Ip3AJ/9esGABqlJYWMiEF8kMKDW1Fi4WE4M2kmuR3Z06dQohbQLX9QwRA82II9pkbkwAMufjx4+j57169cLHAJNk5MiRLCKsLMi76nY1yM7URhRrokbDeRrW3ZCQEKwJk2zJkiWJiYm1tbVMLHz0hg0b0KMvvvhiwIABoaGhRCxTk3nJawzQP/7xj9dee83c3JxzzZkzh8JBQUEs3mZmZm+99RZ7xS1ET09P8rbdu3fjlsje3n33XRpGdRrJcq404iFwOZSJiIjo378/zRO/8cRcV3ZrHjSY5hGTtJNuj4mJwb7QtySsHTt2tLOzo3+4HEKXYVLqSCRNC0IA75KVlRUcHDxp0iQiV09Pb/DgwRs3biQixCdvhbNRKmgnXOaNGze2b99OXE+ZMuXSpUtctVyGQcggQ4wSCivDasIq4+XlxTQwNTXt0qVL165dye5YcQ4fPsxaUFBQIB5ykB2o7SjWRI2G8DRi5iE9BOS3336LO4mPjxemAZiOSUlJM2fO/Pvf//7NN9+MHz+eeclGyMvLY6nu1KmT+F3AWbNmYb3FLxBlZ2evWbPm008/ZVfLli05+5EjRzIyMvBDOTk569ev/+67715//XUTExPym9+948IUr6ys9Pf3t7CwcHJywkv9rg1qROhPcSuLrkC7yTzGjRvHlRLAqN6iRYtOnDgh7jNREpRqEkmTg+mNhhD1sbGxmzdvdnFx6datG4sZFofAT09PJ65REq2OAi4Q8SRhI8b5y2u5JAvoB+xdSUlJZmbm2bNn8bLu7u7iZ9pYL8hsJ0+evG3btjN1X0KNYFK+bs2R7zE1BRRrokZDeBrmEOsruRRZ1Mcffzxq1Cg0SPVWCHv5FwHq0KHDu+++++OPP/KaLWxnsuIzunfv/tZbb1lZWQUFBRUVFQmFYoIyU1u1aoVxwdNgfTDp7KIWs/zixYs6Ojqvvvoqfoj85rc9DUfjWlCKBQsW4Gnmzp2bkpLC7Fd2awB1/XQfro5+IyOhtWFhYatWrRo9ejQ+hs4hL8HNnDx5kuglEaEk5ZX6EknTRcQFcx4FQBOWLl3q7OyMrWFtI5aRHXIkITgUU+poFchaYmKih4eHsbExeojMNs/Qvq+AdSDO4v40nvX06dO4ljlz5gwdOhQTY2RkhB6yKpHxkuWi5BUVFWJdUCrXoRxRos0o1kSNhvA0qAkTa/78+Z9++unXX3/t5eUlfIlqbjHhSLMcHBzee+89PAre4vr16+wtLS3ds2ePoaHhO++8gxPCqeBXhDBhU6iCSWIXf0NCQsR2avGCJZ9aeJqff/4Z8/67ngaXwMFHjBhhb2+PamjaV+2JiyKSaSc9g3CvX7/e1dUVjdPX1x84cKD4hHZ+fr4QblXHSiTNASa8iBEiPTc399ixY7NnzzYzMyMd6t+/Py4nPDw8JyentrZWqaA9cF00m/aTvVhbW5O0VFZWKvuaGYwvzrW8vJy0LTIykqVh8eLFw4cPp1u6deuGGA4bNmzJkiUHDhxQtzLKISRNCMWaqNEQnoaSGRkZTLi//vWvP/30E+vxr+6CcDQKcKjPP//8lVdeYZHGr7BR3dMwp8UERbzi4uJY0dnF39DQUNXE5QULf48ePR7R0zDvyfD27t3r6OhIhJw7d44kQHW0xoVm0DyCk0jGqOFmsC9jxoyxsbHp1asXtmbZsmX4OfGZpl85RYmkuSFsDcGSkJDg5+c3adIkcndzc3NCBtmJiopCUrTrLibtpM2ok7Ozs4uLS0xMDJGu7GsGcPliTKuqqvLy8tD8Q4cOrVq1ys3NrW/fvhYWFowvoj137lxfX9+IiAiUkJKUZ4m5L4VSDJsuijVRoyE8DRbh/PnzdnZ2f/nLX1q2bInJUPc0+fn53t7e33zzzcsvv8xqTV7Cxt/2NJzdwMBAeJpTp06JQwmY2T179nxET0NjUlNT58yZQ4QsXLhQQ37JgcskmP9d99xMQUEBF7hy5Up8IRmJuDezfPnysLAwslLSOHl7RiIBETVENOokPhW1detWrL+uri5aMWHChKCgoPT0dNV730o1DYZGoo1r165FP1nIMzMzuTRlX9NFNY4IfmVlJTmqeFxm8uTJvXv37tKlCxro5OQ0bdq07du3k4VSoKKigsJCCZWjSJo0ijVRoyE8DYnFsWPHTE1NX3nllR9//HH16tXMPGVfHRwN+8Ls/OmnnyjDss1qLTY+b0/D0Tjm6dOnHRwcrKys9u/fT2sbMSpoj+DevXskHBisw4cP47ccHR25WGtr6xkzZpCRiG/P0+qnBCSS54SIIOLi1q1bN27ciIqKEr8NYm5uTgShVKhKRkYG8aX5yQBtw8fMnTvXzMzM09OzvLz8Vwlhk6Fu0O7DBTJwWFIuHGFftWrVpEmT+vXrR65L2jlo0KBZs2b5+Pgg2mlpaRQjqZNvMzVDFGuiRgN5mhMnTiAo+JWvvvpq/vz56p6GWPXz82vZsiVGxNLS8vz582xsAE9DJJAHcGoCZujQodHR0bStEQOD9tAALrOgoIBOW7BgAekIeQnBPH78eJLOS5cuIdPSzUgkvwuBTJgQLOKZem9vb5bGHj162NjYEFlsIZSINY2NI9pP25KSkpBZY2NjnNlNzf6OiadBSB/LCusIOrxjxw4PD48+ffp0r4Okzt3dnR44cuRIfHw88ijeY2pErZY0Loo1UaMhPA2mm5WY2fmXv/zlgw8+GD16NLZa2VcHR1N5mtdeew37kpCQwMYG8DREEbo2b948zoLZysnJacQg4dT0DI0X7zShv1wgZmv48OHr168/d+4czRNPSVOyEdspkWgFIkyIF3HXMyUlBT1haSRrYpkkh2GNjI2NxfSImFKqaQw0iZZHRESID/XQ+Cb8xhMDlJiYeOjQoRUrVowYMcLExKRr167iyV8M6M6dO6OiovCmrBR0gkoDQakvaWYo1kSNhvA0hGVhYSEl//a3v+EzLCwsWJuprpqOvMBYrFq16ocffnj33Xc3bdpUUlLCxuftaTgUFoHj9O3bV3xOsuGfDuZ0xCdwaTT78OHDM2fOtLOzQ3NRMTc3ty1btiC7dCBN/Y988E0ieUxEyBBi6EBZWRlZPpE+ZswYsgUEhOWT9RK7U1tbS3xRTHPii/bQqv3794sfbAkLC/tVNqi91Gne/RszXGB6enpISMiaNWsYCyMjIx0dHYZm8ODBs2fPJtElH87Ly8PKoJDi5rQYUOVAkuaKYk3UaAhPwyxETTZv3vz999+/+OKL+IygoCDERTUveXH16tXJkyd/99137CUvEe8ZP29PQ8NoRkBAAAZiwIAB586da+BQ4XS0gYvKz88/e/bssmXLsFYYuw4dOhDSKC/RLt71b+CGSSRNEuKIaKqurr5y5cqKFStsbW1bt27drVs3EgmWVTIH1T0ApUKjggxWVFSsX7/ezMwMpU1ISKDxyj6tRSV69DYaHhwcPGvWLC6wZcuWrVq1YiyQPi45Li6OBYUkU6qf5IEo1kSNJ/c0TEpMBunO+++//9FHH7m5uRUUFDBZlRL1oDDByfQl1Xj77bc///zzcePGJSUlCfkAXly4cKFPnz4dO3bE2WRlZVEFmNO7du1ilmNcsPBRUVGqt5Opovp+mq5du4rvpxG1eCG+n+aVV14hSNatW0dh0ZJfQasoOW3atB49eixatAhfpex4zohGCm3FzdCNq1atQl7btGnTvn37QYMGbdu2Dc3Fb4nUhPJKTYlE8hTUKYTypW1k/6dPn54xYwYpTdu2bc3NzcU90aKiIuJOpSdKzcaA2Gfhnz9/vhCohwmshkMf0mz6/N69e7fqflcSpSWF27RpE6qOerdr165z584ODg5Lly4NCwvLyMhgCBggylOrcYdAorEo1kSNx/Y0dWF+f45WVVUdPXrU0dHxjTfeeOutt3r37p2cnHz3l+/jB6XCL1WYzXv37jUyMvr0009ZuZEP/ERtbS1zNzc3l1Wcyd2vX7/IyEgEhfLMZkRn8+bNXbp0wbhg3sPDw1U3Lah4/vx5dmGSdHR0MPschypAdRIafX19PM3333+/bNky8VEmaikN+gUOhYThmUxNTbkWjqnseA7c74I6aAnn5Vyo1blz55YvX25vb9+iDqLa19dX9bWnSgUZ0hLJs4awElqB+AQFBbm6urZu3frHH39EgrZv3y5isHHXVM5LMoZIjh071sDAACVE/bRIDWiqgD7kQiorK/FkZLb+/v6jR4/GxHz77bctW7bErnl4eBw6dCg9PV08KyP6XIVyOInkv1GsiRqP7WlYkhECvHZMTIx4r+Sf//znV199xQu0IDU1lV3YF/W5SEXmNLZmwIAByIetre3ixYuPHTuGMcfQTJgwYdy4cUeOHKE6c5oVvaKiIjo6eu7cuRiXb775hoXfx8dHaA0ehRNxuk6dOn399deYoZUrVyYlJVGFXdeuXfPz8yP3+uKLLzjR5MmTr1y5wi4OqzTlFwizffv2/fTTT6NGjYqPj+ekyo7nAJcvYpuW0HiulPQLE2NoaEiCyOXv2rXr0qVLJCjCFyrVJBLJc0MkGOIhm507dzo7O7PE9uzZc+LEiShVYmIickQ8UqzhQ5IzomYXL14cNGiQpaUlxuu5Jl3PCpoN9Bj9RoMRtIyMDPJP1HvKlCnIPt1LJ9vZ2U2dOhXlJ69DsVFFqXuSx0KxJmo8tqchdykpKYmNjT148OCaNWuw2G5ubizJvNi0aRMeRSzM6rOTLchHYWHh8ePH8RnIR//+/fExs2fPXrhwofhcT3FxMccnHrBNTPSjR4+uWrVq2rRpSAzmhgA4e/ZsXl5ednb2iRMntmzZQpCwa/r06VQ/derU1atX2XXmzBlKzpgxg1a5u7t7e3vTKpIAdadFDsRhv//++xUrVuTn53NeZcdzgGtHoTIzM0NCQnAzjo6O+vr6JiYmY8aMwZzFxcUhrOLaaeSv2imRSJ4HItZAyFp4eDh5Wt++fVl3WXSRJnIPJEX1lndDQqvKy8uDg4OdnJyGDBmCLUAVlX0ajOhMMs+cnBySUqzhvHnzyGPJ3Lr98gsGpKAnT55MSUlB8EnzpOhJngDFmqjx2J7mP3U/YY31vnz5Ms4GB6OCf9mIe8B0P3CCslFUp/Dhw4d9fX1ZzgMCAkJDQ5nfLPks/HVz+3/x7Ddu3CBPqn8KXqelpSE9eKYrV678aldqampBQQG7eIFFUHbU7eI4OCGChyMrTakzZ8iEvb19586dUS6CsP7eZwIHJFy5KDpEPNtPMA8dOtTU1BQ3w4sNGzbQBpot2vbMGyCRSB4FEap4F+IUGzF16lRra2vi1NXVdd26daogFauvUuc5w7nIANeuXWtpaUleh/QhWco+jaFOtBQQOjqQjoqPjyeNJB0l4SRxtbCwoCcHDhyIR9yxYwd56fXr18kwpZWRPA2KNVHjyZ+nES9+Bdt/e6aKXapi4oVA7FKVAdVGQf1iv9oF6ltU1N+lagbuZ9OmTe3bt8db4KgwW6q9zwROijNDlbBf+LaZM2c6OzsjT+Dm5rZt2zaSmPr3ZpRqEomkMSAGiUQWZpbb5OTk3bt3T5o0CWdjZmYmviDqwoULiEaDvUWCIrH2u7u79+jRA3+AVtA8ZZ9moOox0tHc3FwS2uPHj69evRp969evH1YGsDJz5syhMyMiIkgsb2vGw9eSJoBiTdR4bE/TNCCu4uLiRo8ejafZvHnzA98sewJErHJwhA8NQhn37t3r4eHh6OiIMFlZWaFQvr6+uBm8jiq8lcoSiaSxESFM/KIJMTExiIP4AXxzc3OCl+SE/Ec8nCdKKtWeA3gFzoUn6Nmz565du25q0g/rAtqF+SsuLr569eqZM2foqGnTpg0ePBiVo8EODg5TpkxhY0hISFpaWlW935VUjiKRPB2KNVGjmXqae/fuHTx4EJ/RrVs30i+CU9nxFIg4v3PnTnl5eXp6+uHDh+fPn9+7d+/u3buTrxDwCBMqiZtBnhAsCis1JRKJJkEsE6G1tbU5OTmnTp3y9vbu27cvcmFvbz979uzjx4/n5+erPpyo1HnWoCSRkZE2Nja2trYnTpz41VvnjQVtoCXiQ0yxsbHkbJ6ensOHD0fiDA0Naa2bm9vy5cuDgoJIGukl3EwDv2cnaSYo1kSNZuppysrKFi9e3LJly0GDBhF4JBDKjseHWBUgcAQwSQnJHDkK4d2lSxfxq5P+/v6JiYmc9Pbt26oMD5RDSCQSDUNEKNFaU1OTlZUVGhpKimJqatqhQwecjZeXV1hYmHgrSizYoNR8RuCoAgMDjYyMcAy4hwZ7z6s+4roEdAVtwM0kJyfv379/0aJFgwcPNjY21tHRMTExGT16NM7vwIEDNDU3N5diWBmV1imHk0ieHYo1UaOZeporV664uLi0b99+1apVhN8TRx0VUbR7db8mg2vZsWPH+PHjLS0tUSJnZ+eFCxcS5Jyr8JdfNpD5ikSiXRCwqrU8KCho9uzZpCv6+voDBw5cuXJlTExMaWmpWL+VCs8IzohLwDGQFF2/fv253hN6GOgV50W7KioqMjIyjh07Jn6MycrKqnv37mZmZiNHjsTekbNFRkZeu3aNtA0rRhUpdJLnjWJN1GimnubIkSMGBgakF+Hh4UTsE4ef0DvSOBIX3AxWBp+E5JHSIX+pqanq3yKl1JRIJNoDkUuks7THx8dv3bp12LBhvXr1wtlMmDBh3759rPdPIyMPBKs0ceLE1q1bL1++vLruVzaVHQ0I2VpxcTG+bdOmTVyptbV1586du3Tp4ujoOG3aNDaeOnVKfBZVvJ9ep3BS4iQNgWJN1GhenoZ4I/BIJlavXt2xY8exY8diRx4rAaqL2fv3ZrApt2/fJn8KDg728PAwNTVt27YticvkyZPROOKcsyCCIl8Bpb5EItFORODjXfLz88U3gPfp0wdbQw4ze/Zs8VaU6tmRpwl5Ub2goKBfv37kSH5+fiIpUnY/H8RJaTx6yFWQjCUlJSFlXl5eQ4cOxcp06NCBJNDV1XXZsmWHDh1iL9eL2aKwys2AcjiJ5DmjWBM1mp2nQZKio6NHjBhBmrVjxw4SL2XfI0B1EfMEfGLdz+LPnTvX0NDwhx9+IObHjx9/8OBBlOixTJJEItEuiG5ivLi4GGczadIkPT29li1bOjo6rlu3LioqStyaFc5GqfCYUJF06MqVK3gIc3PzkJAQZcdzQ1wRzSYTS01NPXHixMaNG8eMGYOsIW7t2rUjWyNzQ9+uXbum+voJUOpLJA2OYk3UaHaeBhOzZ88eS0tLZ2fn2NhYLI6y7zehorgxU1pampaWFhQUNGXKFBSHmEd0Jk+e7O/vn5mZWVVVRcDLUJdImjBCDYj0mpqapKQkPz+/UaNG4Wx0dXVHjhwZEBCQnJyMsxG3aZU6jwPHR0mQKfIl8YCwsuOZwlloHleBrNHajIwMDNm+fftmzZplZWWlo6MjxG3ChAlbt26NiYmRH2KSaBSKNVGjeXkaojE7O9vT09PAwGDGjBk3btwgO1H2PQQR+eKtdNzMkSNH5s2bR9bSoUMHFIeAP3r0KG6msrJS3J6R0S6RNG1EmAtQBgzBlStXvL29bWxsOnXq1LVr1zlz5oSEhGRlZWF6cD+PawIoXFhYyEEwSfPnz+c4yo5nBMenVbSc5uXl5WHLTp48uWjRov79++vr66Ns3bt3J+VbvHhxWFiYePJXZWVAOYpE0qgo1kSNZuRpiEaSkjNnzgwcOJD8w9/f/7efvKO8uB+Lvly+fHn//v3iG9O7detma2s7e/bs4OBgXA4HaYB3uyUSiWZC7KMS+fn558+fX7ZsGc6GlMnS0hKJCA0NxZGobt8+okogStevX+/Xr5+Ojs7WrVvxTMqOp4BTc1ghaEhWbm5uXFzc4cOHMS7iI9m4GVTRxcUFc3Ps2LHk5OSCggLVk7/KUSQSjUGxJmo0F08jQpoQ9fHx6dWr16BBgy5dukR4PzBcReHbt2/fuHEjOjpa/Gy4g4ODhYUFqYyHh0dQUBAxX1FRgVT9hiuSSCTNAZW8ZGZmHj16dNq0aTgbdGbIkCHLly8/depUXl7erbpvc3gUf4CNSEpKwhgZGhoeOnQIIVJ2PBGibRyzpqYG40V6RgvXrFkzbtw4NA0fg/1C1mbNmrV3796oqCjxHrrq9tKjNFgiaXgUa6JGM/I0+I/CwsJ58+Z169ZtxowZqMyvUpC6+L0PJYuLi2NjY3ft2oWbIeaRp969e8+dOzcwMBBRKCsro65STSKRSOrAClRXV8fExJA7jR07FsdAIsSLHTt2oBulpaXiIRtERqnwIHA/Z8+ebdmypZ2d3blz55AjZcfjIKRMuJnKysqrV6+ePn2a9AzpGzBggK2trampKcd3d3dfv379sWPHxJeCSlmTaAuKNVGjGXkasii0ZujQoVZWVlu2bCEXUYlLXfjff4+ZMgUFBZcuXfL19Z00aRI+xtjY2MnJafbs2biZ1NTUioqKO79834w4skQikQiQBVQFU0L6FBERsWrVquHDh2Mg+vTpM2vWrICAgISEBByGEJCHaQjewt/f/5tvvsEMYTUey2eIwwJOqLy8HCsTGRnJeRctWjRs2DAHBwcbGxv+urm5eXt7o2lxcXE3btygwZQX92aUA0kkmo1iTdRoFp6GCCdWSZJ27txJ5vT/b+8+g6K8+j6Oz20bo0axd8SYKKjR2EkimheKxBbUGFSIaIyMiGIkscQOFpAEFEliGTXqRMVHLCgYWY0FEBEjCKJgXboICyuwFMGZ+/k9nCPDzWWhyRP2/n1eOLB7nbP44vrP99pd2IULF166dAkXTOLkB5zMOKuTk5OvXr2KmsG1C66uxF+e2Lhx49mzZx88eIDckdsREb0WpgoqASMlKCho69at4lNsp0yZ4uLiolKpEhISMHDENVU5WBsfH+/m5mZsbOzl5YVLLEwnsefrieUIIPEaU1RUlJ+fH/axs7PD41pYWIwfP/7bb791d3cv+8fNGTFUR8k0UdD/psFJi+GC8/zOnTsYKBMmTHB1dY2NjRWXSvg3Pz8/KSkpLCxs9+7dyB10zOTJkzEIfvrpJwwFrMLlDo6p4GQhIgKMl9Lflzxx4sTatWutrKwQFrNnz0ashISEiL/RJwYRxhS+wPHojBs3bsybN69v377Hjx/HpdQbs0PMMRyJTMG8QjN5e3t/9913NjY2GHfinb+bNm06cuRIcHDw3bt3cXWHg/FY4qHlLkR1ikwTBX1uGjEpMDXS09Nv3bqFU3r69OnTpk07ePAgTn4xRHBuq9Xq/fv3I2JGjBgxbNgwHODh4XHp0qX79+9rtdqyT+fIfYmIKgBDA3MGMwQZER0d7evr6+joaGpqOnToUFtb20OHDiUkJIjrJVx35ebmpqSkxMTE4PYxY8Z8/PHHmEJY/prJI/bHWkwqlBMm29KlSydNmoQ5NnDgQEtLS4SUj48P9sG9Go0G4w4Hiz0FuRFRXSPTREE/mwbnKs7bzMzM8PBwXLLMnDnTwsIC57mhoaGZmZmnp2dUVFRqampERMSuXbtmzZo1evRoBM0333yzc+dOXMqgcnJyckpPfrkpEVEllZSDfD4YVXHz5k2Uh/gbfeDg4LBv377r16/7+fmhP8RLVJhUHTt2HDBgAOLmyZMnGERyrxLYDXMJnYQZlZaWFhkZKV4unzp1qtjTysoKW2EtUubevXt4UByJ40tTRm5EVJfJNFHQz6YR5/zp06ft7e0HDx7ctm3bpk2bNm7cuGHDhh06dPjss88WL168evXq6dOnDx8+fMiQIXPmzEH6XLhwAZdNuFrCEOGZT0Q1CCMFcwll8/jx47CwMFw+WVtbm5qaigoxNzfv1atX69atmzRpgknVqFGjdu3aTZkyBWmSkpIityiBfVBIuO46efLkunXrpk2bhiH20UcfjRw5Eqn0yy+/BAQEREdHp6enl/2IbJDrifSCTBMFfWsacfZicNy6dcvOzs7Q0BDT4V9l1K9fH1OjW7duJiYmffr0wdRwc3M7f/58cnKyeBJYjAC5HRFRzcF4wZDBFRfKBhddjo6OgwYNatWqFTqmQYMGckiVwKTCxZilpaWfn192djYutMTvMYSGhiJ0Vq1ahbuQMjBp0iQnJydEElIpNTW17AtM8lGJ9I5MEwU9bBpcmuDMd3V17dmzJ+aCnBD/qV69el27dp01a1ZgYKBWqy0dAYLci4ioRskR8+LFcWTNhAkT3n33XTmY/hPGV5s2bebNm6dSqa5cuXLs2DGMNUytESNGmJqaWlhYzJ07d8uWLUFBQYmJiSiess/KgHxIIn0k00RBD5smPz8f1ytjxozBpY+cDS9jbGy8YcMGXNbgsonnPxHVJswcjUZz+PDhoUOHlnsuuSzc1bdv35kzZ9rZ2Y0aNWrAgAEIGisrq/Xr1589e1a8xRiXZBxi9N9GpomCHjZNVlaWr6/voEGDXvUkjdCqVas5c+YkJSVxFhBRLXv+/DmGz7Zt29577z05kl6hefPmvXv3xkWajY3NypUrDxw4cO3atcTExLIfIyXIrd8CbF5Y8nvm4gX6co+Fb3FjQUEBDsAX+K/JO4jeGpkmCvrWNDid0tLSduzYYWJiUq9ePTkVXqZBgwbjx49Xq9VyJRFRbSkqKrp3756zs3OnTp3kSHqFli1bImjEa0zx8fGaF5+SLTd6hf9rnJJXuEB0hpK4XRwpl70M7kU8oaIiIyPj4uLEp0GJVWIf/F+ys7MfPnx469YtrVaLb+VKordGpomCHj5Pk5GR8fvvv/ft2/f1TdO4ceMvv/wSM0KuJCKqLciCR48eubq6dunSRY6kV+jWrdvy5cujoqJycnIqkiACjkFbYAnKKSIiIiQk5Ny5c4El8MWlS5euX78eGxuLQsJhr98QB+BH3bp16+zZs5cuXapSqcTHO+CH0el0ycnJYWFh+/btww/p5OSEnxM3ypVEb41MEwU9bBpcMQQEBJiampb7PYJyOnbs6OjoWO73JImIagGCIDU1dceOHcbGxq95lRwXZv369fvtt99wqYaMkIsrQDRNVlYW2gXz0MvLy97efvr06TY2NvPnz/fw8Dh+/PiVK1dQJG9smvz8/L/++mvSpEmdO3ceMGCAm5tbQkKCeBNPeno69kfuTJw40cTEZNiwYaglTGC5kuitkWmioIdNU1BQgGsFW1vbVq1aycGggNz55JNP9uzZk5mZKVcSEdUWTCqtVnv69OmxY8c2a9ZMDiaFd955Z/z48f7+/jqd7vXlUQ4ORnNglVqtjoiI2Llz5+jRo9u1a9e9e3dsiEgKCQm5f/8+ogeHvbFpVCqVhYVF8+bNe/bs6eLiEh8fL5rmyZMnkZGRmzdvHjx4MP4XuBf18/TpU7mS6K2RaaKgh02DMw3XNH/88YeZmdlLhwUufbp06bJkyZLo6GicrnIlEVEtwtVXTEwMgqBPnz7KX9LEmELQmJiYuLq6Pnz4ULwdWK6sGBwv5iGm3LVr16ZNm4Y9O3ToMHfu3OvXr+fk5IiaEeSalykqeevPhg0bLC0t7ezs0GG4FMTa58+f5+bmajSaEydOjBs3DsXzwQcfsGmodsg0UdDDpoHCwsKEhASchJ9++ikuTRo2bCjnxL/+1bRp027dullbW4u/TIMzU64kIqpFGD5ZWVlXrlxZtGhRv379WrRoUfpyef369fFt//79nZyccEDeiw/xlisrA6vwQKgie3t77Ny1a9cVK1ao1eqKjz7xvpnY2NigoCDEUFpaWunvW+Eu7BMcHDx9+nQDAwM2DdUamSYK+tY0As40XANFRkaKP0BubGzcvn17xE3Hjh2HDx/+ww8/+Pv7P378GOmD01KuISKqRRg+RUVFGRkZly9fdnZ2Njc3f//99zGmwMjIaMyYMe7u7levXs3MzKxy0AhYm5iYuGDBAjSNoaHh2rVrk5OTK7WhmKi5ubniL/uVWxsaGooxy6ah2iTTREE/mwZwEuL0S0lJCQ8PP3r0qLe3t6en5+7du1UqVVxcHMYEzsxqTgoiourA/CkuLs7Ozr5///6lS5cOHjyIMbV161Z8ERQUpFarkREVf0LlVfAoSUlJCxcuRNN069YN/ZSamirvqzBsUkre9ALCy8bGpmXLlmWbRh6qIJaA/L4MeQdRBcg0UdDbpgGcJBgHhYWFWq0W5zDO6vT0dJ1Ox5ohon8OjCMMJVyD4VoLl2GAL176jEjVYJMqNw3WAn7CZyUfOJWTk4N/cYu8u4SyaXA8Bm9+fj4OFvB1QUEBBrJYi3/FcMbtAp81p0qRaaKgz01TCqdKOfIOIqJ/ADmYXowmfFGD113Yp2pNg4UoD7RIVlZWbGxsQEDA3r17z58/j0aRR5Qo1zQ4ODs7++bNm4GBgVjiX0KlUl2+fDktLU087YRcw2ExMTEXL148e/bsuXPn8HVubq7YkOiNZJoo/Fc0DRFR3VJTQQPVaRqdTnf//n1ECVZZWlqOHDly48aNyBF5RIlyTZOZmanRaE6dOvXjjz9aW1t/8cUXX3311cqVKw8fPpyYmCia5tmzZ+np6UFBQT///POiRYuw54ULF/hGHKo4mSYKbBoiIn1WnaZBZ4SGhm7atKl///6NGjXq1KnTmjVrXt80Wq22sLDwxo0b69atGzJkSNOmTdu1a4dHv3nzZn5+vmg18WLWgwcP0DSzZs3avn37vXv3sEpsSPRGMk0U2DRERPqsOk2DzkDB3LlzZ8aMGc2aNatI04j30+CYCxcuODg4GBkZtW/f3t7ePiIiorRpADvHxcV5eHh4enqGh4frdDqsEncRvZFMEwU2DRGRPqtO06AziouLMzMznZyckCYVbBrc+KzkYy/37NkzYsQIAwMDc3Nzf39/rVYrwgX/5uTkYOHGjRuPHz+enJyMW0pzh+iNZJoosGmIiPRZdZpGQKYsW7asc4kKNg0aJS8vD3c5ODgghnr06LFixYq7d+8WlXxqN/7Fz4CaWb9+fXh4eG5uLh6lZDOiCpFposCmISLSZ8iFqjVNqezs7OXLl1eqafCgxcXFycnJe/fuHTRoUIcOHczMzM6fPy9eftLpdNHR0bt27fr1118fPXok3jhMVHEyTRTYNERE+uz/pWlAtEtoaOjMmTONjIyQNd7e3nhoFExGRoZKpfL09Dxz5oxGo8GRYglRBck0UWDTEBHps0o1DQ5WqnLTIF/w0EgZU1PT5s2b47Dg4OC8vLwHDx7s37/fy8srLi6uoKAAR4olRBUk00SBTUNEpM9QDBVvmucv/mSwTqfDF+Ktu1VrGqGwsPDvv/+2tbVt27Zt9+7dPTw81Go1ysbV1dXHxwdbMWioCmSaKLBpiIj0WWWbRqPRxMbG3rlzR6vVFpd8mkF1mgY7pKSkeHt79+/fv02bNlOnTkXKHD58eMWKFViYn58vjyOqDJkmCmwaIiJ9VqmmQYLExMScOnUKdYJ2wbe4sTpNg0dHuISFhVlaWrZu3drQ0NDW1tbNzW3z5s0JCQlIKHkcUWXINFFg0xAR6TNURWJi4oIFC9A0SIq1a9empKTgRnn3C7gFhaHVahE027ZtU6lUpe90Kds0q1evzszMxO3iLnhj0yCMUFHbt2//8MMPmzRp0qtXL3t7+8DAQBxZuglRpcg0UWDTEBHpM5SKWq12cHAQTbNmzZqkpCTxRhl5xIugyc3NjYyMdHd337hxY0hISOmTKGWbZtWqVRqNpuzy0NDQ1zcN5OXl3b59e/LkyS1atOjSpcv333+Prnr27Jk8iKiSZJoosGmIiPSQiAnER35+fkRExNdff42m6dSpk6OjI8IFXaLVatEfQmZmZnJy8vXr17ds2TJnzpzNmzfHxMSU7pCRkbFo0aJ27dp17NhxyZIliYmJpW8fxr8XL16cOnWqgYFBjx49/P39yxWPUFxcrNPpkEq9e/cePHjw7t27i4qKyh1DVHEyTRTYNERE+ga5gIwoLCxEuKjVah8fn88//7xFixaGhoZTpkzZs2fPuXPnLl++HFQCX+DbQ4cOubi4TJw40crKat++feL1KbQLdoiOjp49e3bnzp2NjIzmzZt39epVNBA2z8vLQ8EcOXJk3LhxyB1jY+MdO3bExcXl5uaKvxdcCpWDWwIDAydPnmxtbX3t2jXcIu8jqjyZJgpsGiIifYMcQUNkZWVFRUWpVCoPD48ZM2ZYWFiMHTt22rRpy5Ytc3d33/KCp6fnpk2bFi9ejNpA8Tg7O4eGhup0OmyCOrl9+/bJkycXLFiAtSgeHIaIiYmJQeukpqZGRkZu377d1tYWWTNp0iSsxcPFx8cjd+SPUgJbIWIQQ1iOx0pPT5d3EFWJTBMFNg0Rkb4RTYPsQHMEBwcHBgYeO3bsf0r4+vqePn36zz//xI3C2bNnz5w54+fnh2OOHz+O8nj8+LF4bUg0TVBQEO7F2qNHj2Itvo2NjRVNEx0dff78eazCXRAQEBAWFqZsGgRNYWHhgQMH1qxZgx0QTPIOoiqRaaLApiEi0kPICPHKUWYloWNK3y6DssnOzpZ3lJGTk4NGyc/PF+/F0Wg04l/AIyJZsFD+HCWw4ZMnT1auXLl169aHDx+Wu5eosmSaKLBpiIj0EIqkmqqzCYoHfZOcnJyamoruSUhI8PHxWbp0qXiShm+moWqSaaLApiEiohqDoCkuLo6Pjz9x4oSnp6eXl5f4aCcbGxs3N7eYmBjci2Pk0URVItNEgU1DREQ15vnz5wUFBRcuXLCzs+tfYvjw4WZmZqNGjfL19c0s+Xt98lCiqpJposCmISKiGoOm0el0yBdzc/MmTZo0bNjQwMBg4MCBzs7OcXFx4q3H8lCiqpJposCmISKiGoNkefbsWXBw8Pz583v37m1kZGRmZubi4hIREZGbm8t30lCNkGmiwKYhIqIag6ZBuGRkZFy8eHHbtm1ubm5+fn7iD/Hhdj5JQzVCpokCm4aIiGoSwqWoqOjp06dJSUlqtTorK6uwsJA1QzVIpokCm4aIiGoYCkZJ3kdUbTJNFNg0REREVJfINFFg0xAREVFdItNEgU1DREREdYlMEwU2DREREdUlMk0U2DRERERUl8g0UWDTEBERUV0i00SBTUNERER1iUwTBTYNERER1SUyTRTYNERERFSXyDRRqGjTEBEREf2TsWmIiIhIH7BpiIiISB+waYiIiEgfsGmIiIhIH7BpiIiISB+waYiIiEgfsGmIiIhIH7BpiIiIqO7797//F+H1crpPW96qAAAAAElFTkSuQmCC&quot;,&quot;width&quot;:&quot;753&quot;,&quot;height&quot;:&quot;325&quot;,&quot;x&quot;:0,&quot;y&quot;:0}" math="0" shadow="0">
      <root>
        <mxCell id="0" />
        <mxCell id="1" parent="0" />
        <mxCell id="DIenjaH9rWPZfzi8n2nr-1" value="" style="endArrow=none;html=1;rounded=0;strokeWidth=2;strokeColor=#CC0000;" edge="1" parent="1">
          <mxGeometry width="50" height="50" relative="1" as="geometry">
            <mxPoint x="155" y="44" as="sourcePoint" />
            <mxPoint x="523" y="44" as="targetPoint" />
            <Array as="points" />
          </mxGeometry>
        </mxCell>
        <mxCell id="DIenjaH9rWPZfzi8n2nr-2" value="" style="endArrow=none;html=1;rounded=0;strokeColor=#CC0000;strokeWidth=2;" edge="1" parent="1">
          <mxGeometry width="50" height="50" relative="1" as="geometry">
            <mxPoint x="80" y="270" as="sourcePoint" />
            <mxPoint x="470" y="270" as="targetPoint" />
          </mxGeometry>
        </mxCell>
        <mxCell id="DIenjaH9rWPZfzi8n2nr-3" value="" style="endArrow=none;html=1;rounded=0;strokeWidth=2;strokeColor=#CC0000;" edge="1" parent="1">
          <mxGeometry width="50" height="50" relative="1" as="geometry">
            <mxPoint x="161" y="47" as="sourcePoint" />
            <mxPoint x="691" y="190" as="targetPoint" />
          </mxGeometry>
        </mxCell>
        <mxCell id="DIenjaH9rWPZfzi8n2nr-4" value="" style="endArrow=none;html=1;rounded=0;strokeWidth=2;strokeColor=#CC0000;" edge="1" parent="1">
          <mxGeometry width="50" height="50" relative="1" as="geometry">
            <mxPoint x="80" y="270" as="sourcePoint" />
            <mxPoint x="690" y="190" as="targetPoint" />
          </mxGeometry>
        </mxCell>
      </root>
    </mxGraphModel>
  </diagram>
</mxfile>
